<svg xmlns="http://www.w3.org/2000/svg" width="20" height="13.359" viewBox="0 0 20 13.359">
  <g id="Group_168" data-name="Group 168" transform="translate(-573.337 -253.314)">
    <g id="Group_166" data-name="Group 166" transform="translate(573.337 253.314)">
      <path id="Path_25981" data-name="Path 25981" d="M591.075,266.673H575.6a2.264,2.264,0,0,1-2.262-2.262v-8.834a2.265,2.265,0,0,1,2.262-2.263h15.476a2.264,2.264,0,0,1,2.262,2.263v8.834A2.264,2.264,0,0,1,591.075,266.673ZM575.6,253.792a1.786,1.786,0,0,0-1.784,1.784v8.834a1.786,1.786,0,0,0,1.784,1.784h15.476a1.786,1.786,0,0,0,1.784-1.784v-8.834a1.786,1.786,0,0,0-1.784-1.784Z" transform="translate(-573.337 -253.314)" fill="#a8bee2"/>
    </g>
    <g id="Group_167" data-name="Group 167" transform="translate(573.619 257.003)">
      <rect id="Rectangle_96" data-name="Rectangle 96" width="19.435" height="2.039" transform="translate(0 0)" fill="#a8bee2"/>
    </g>
  </g>
</svg>
