<svg id="Group_108" data-name="Group 108" xmlns="http://www.w3.org/2000/svg" width="16.393" height="11.709" viewBox="0 0 16.393 11.709">
  <path id="Path_25874" data-name="Path 25874" d="M597.468,170.14l-2.028-1.775-5.8,4.971a1.188,1.188,0,0,0,.809.317h14.035a1.179,1.179,0,0,0,.806-.317l-5.8-4.971Z" transform="translate(-589.271 -161.944)" fill="#a8bee2"/>
  <path id="Path_25875" data-name="Path 25875" d="M605.3,141.892a1.179,1.179,0,0,0-.809-.317H590.459a1.174,1.174,0,0,0-.807.32l7.824,6.706Z" transform="translate(-589.279 -141.575)" fill="#a8bee2"/>
  <path id="Path_25876" data-name="Path 25876" d="M588.1,145.864v9.728l5.659-4.809Z" transform="translate(-588.098 -144.836)" fill="#a8bee2"/>
  <path id="Path_25877" data-name="Path 25877" d="M632.881,150.772l5.659,4.809V145.85Z" transform="translate(-622.147 -144.825)" fill="#a8bee2"/>
</svg>
