<svg xmlns="http://www.w3.org/2000/svg" width="125.898" height="124.614" viewBox="0 0 125.898 124.614">
  <g id="Group_6" data-name="Group 6" transform="translate(-258.443 -136.5)">
    <g id="Group_2" data-name="Group 2" transform="translate(277.371 136.5)">
      <g id="Group_1" data-name="Group 1">
        <path id="Path_1" data-name="Path 1" d="M395.706,181.329a44.06,44.06,0,1,0-44.821,43.285A44.058,44.058,0,0,0,395.706,181.329Z" transform="translate(-307.592 -136.5)" fill="#a8bee2" fill-rule="evenodd"/>
        <path id="Path_2" data-name="Path 2" d="M383.759,299.6l1.08-2.14.537-.713h1.071l6.876,1.34,6.976,1.248,2.678-.8,6.977-.713,2.052-.8,2.687.624.177.892-.993,1.338-2.851,1.516-3.848,1.972-.714.715.268.8,2.23,1.517.456,1.528.092,1.962-.725,1.335-.981.268-.89.091-1.072-.359-1.607-.355-.189.713.724.9.981.535,1.25.177,1.339.536.536.893-.449.98-1.963-.356-2.685-.445-1.25-.894-3.119-2.328-1.347-.536-.894.177-1.6.548-1.427.624-1.26.356-1.159.357-.984,1.428v1.248l-.888.534-.9-.266-.356-.982v-2.051l.545-.981.891-.637,1.515-.624,1.876-.536,1.706-.8.263-1.249-1.158-1.16-1.7.268-2.852.8-1.526.356-2.053.269-.356-.715-.088-1.248.268-1.079.712-.8,1.16-.445-1.6-2.23-2.142-1.528Z" transform="translate(-354.425 -235.034)" fill="#00973d" fill-rule="evenodd"/>
        <path id="Path_3" data-name="Path 3" d="M388.529,191.278a11.729,11.729,0,1,1,11.728,11.73A11.728,11.728,0,0,1,388.529,191.278Z" transform="translate(-357.359 -162.969)" fill="#ff9d00" fill-rule="evenodd"/>
      </g>
      <path id="Path_4" data-name="Path 4" d="M327.655,215.444l-4.018-4.813c-.471-1.137-.634,1.357-.361,2.306a4.083,4.083,0,0,0,.838,1.844l2.682,2.377a7.487,7.487,0,0,1-3.961-2.4,6.172,6.172,0,0,1-1.138-1.175c-.317-.421-.295,1.012-.292,1.4a5.357,5.357,0,0,0,1.5,3.4,13.151,13.151,0,0,0,3.87,2.472l-4.138-1.479a8.133,8.133,0,0,1-3.372-1.306c-.251-.16-.248.5-.125.939A9.043,9.043,0,0,0,321,221.57a2.551,2.551,0,0,1-1.442.206c-.481.036-.3-.256-.956-.2-.481.038.768,1.816,1.759,2.251a1.666,1.666,0,0,1-1.241.07c-.236-.1.409,1.718,1.158,2.375,0,0,1.936.107,2.429.221a12.145,12.145,0,0,0-1.871,2.149,13.216,13.216,0,0,1-1.889,1.847l-.867.715a7.143,7.143,0,0,0,2.716.276,3.981,3.981,0,0,0,1.669-1.449l.978-1.859.069,1.2-.792,1.5c-.426,1.294-2.05,2.815-1.485,2.576,1.314-.547,2.08-.587,2.813-1.28l1.379-.7,1.049,1.2Z" transform="translate(-314.042 -181.903)" fill="#00973d" stroke="#1a1818" stroke-miterlimit="3.864" stroke-width="1.385" fill-rule="evenodd"/>
      <path id="Path_5" data-name="Path 5" d="M337.729,221.185a9.626,9.626,0,0,1-2.075-2.613" transform="translate(-324.847 -186.965)" fill="none" stroke="#1a1818" stroke-miterlimit="3.864" stroke-width="1.385" fill-rule="evenodd"/>
      <path id="Path_6" data-name="Path 6" d="M335.111,229.646a6.152,6.152,0,0,1-2.921-2.039" transform="translate(-322.717 -192.52)" fill="none" stroke="#1a1818" stroke-miterlimit="3.864" stroke-width="1.385" fill-rule="evenodd"/>
      <path id="Path_7" data-name="Path 7" d="M333.053,239.042a11.062,11.062,0,0,1-4.252-1.41" transform="translate(-320.633 -198.684)" fill="none" stroke="#1a1818" stroke-miterlimit="3.864" stroke-width="1.385" fill-rule="evenodd"/>
      <path id="Path_8" data-name="Path 8" d="M331.538,244.432a16.861,16.861,0,0,1-4.569-1.237" transform="translate(-319.507 -202.105)" fill="none" stroke="#1a1818" stroke-miterlimit="3.864" stroke-width="1.385" fill-rule="evenodd"/>
      <path id="Path_9" data-name="Path 9" d="M329.3,248.309c-.967.01-3.409.5-4.321.162" transform="translate(-318.284 -205.249)" fill="none" stroke="#1a1818" stroke-miterlimit="3.864" stroke-width="1.385" fill-rule="evenodd"/>
      <path id="Path_10" data-name="Path 10" d="M327.469,255.47c-.673,1.4-.279.744-1.569,1.942" transform="translate(-318.849 -209.652)" fill="none" stroke="#1a1818" stroke-miterlimit="3.864" stroke-width="1.385" fill-rule="evenodd"/>
      <path id="Path_11" data-name="Path 11" d="M333.794,253.1a5.736,5.736,0,0,1-1.938,4.7" transform="translate(-322.511 -208.193)" fill="none" stroke="#1a1818" stroke-miterlimit="3.864" stroke-width="1.385" fill-rule="evenodd"/>
      <path id="Path_12" data-name="Path 12" d="M338.8,221.635l.052,6.631-.636,2.614a6.62,6.62,0,0,0-.524,3.124c-.135,2.113-.625,2.209.607,5.394l1.1-17Z" transform="translate(-325.972 -188.848)" fill="#1a1818" stroke="#1a1818" stroke-miterlimit="3.864" stroke-width="1.385" fill-rule="evenodd"/>
      <path id="Path_13" data-name="Path 13" d="M496.929,213.415l4.187-4.669c.508-1.119.583,1.378.276,2.316a4.053,4.053,0,0,1-.9,1.816l-2.765,2.28a7.468,7.468,0,0,0,4.041-2.259,6.119,6.119,0,0,0,1.178-1.136c.331-.41.264,1.024.244,1.41a5.335,5.335,0,0,1-1.616,3.348,13.077,13.077,0,0,1-3.954,2.333l4.186-1.333a8.074,8.074,0,0,0,3.415-1.188c.261-.149.233.515.094.945a9.061,9.061,0,0,1-1.949,2.49,2.532,2.532,0,0,0,1.433.256c.477.055.3-.242.961-.167.477.055-.831,1.788-1.835,2.186a1.632,1.632,0,0,0,1.232.114c.245-.087-.468,1.7-1.236,2.336,0,0-1.939.04-2.435.134a12.183,12.183,0,0,1,1.793,2.214,13.5,13.5,0,0,0,1.823,1.912l.843.744a7.126,7.126,0,0,1-2.726.179,4,4,0,0,1-1.615-1.505l-.913-1.891-.11,1.2L501.32,229c.383,1.31,1.954,2.887,1.394,2.629-1.292-.6-2.055-.66-2.764-1.378L498.6,229.5l-1.088,1.166Z" transform="translate(-424.012 -180.749)" fill="#00973d" stroke="#1a1818" stroke-miterlimit="3.864" stroke-width="1.385" fill-rule="evenodd"/>
      <path id="Path_14" data-name="Path 14" d="M498.771,219.1a9.727,9.727,0,0,0,2.165-2.541" transform="translate(-425.144 -185.729)" fill="none" stroke="#1a1818" stroke-miterlimit="3.864" stroke-width="1.385" fill-rule="evenodd"/>
      <path id="Path_15" data-name="Path 15" d="M499.772,227.647a6.14,6.14,0,0,0,2.99-1.936" transform="translate(-425.76 -191.354)" fill="none" stroke="#1a1818" stroke-miterlimit="3.864" stroke-width="1.385" fill-rule="evenodd"/>
      <path id="Path_16" data-name="Path 16" d="M499.414,237.109a11.092,11.092,0,0,0,4.3-1.262" transform="translate(-425.54 -197.587)" fill="none" stroke="#1a1818" stroke-miterlimit="3.864" stroke-width="1.385" fill-rule="evenodd"/>
      <path id="Path_17" data-name="Path 17" d="M500.242,242.546a16.833,16.833,0,0,0,4.609-1.079" transform="translate(-426.049 -201.042)" fill="none" stroke="#1a1818" stroke-miterlimit="3.864" stroke-width="1.385" fill-rule="evenodd"/>
      <path id="Path_18" data-name="Path 18" d="M502.8,246.258c.97.045,3.392.62,4.318.313" transform="translate(-427.62 -203.988)" fill="none" stroke="#1a1818" stroke-miterlimit="3.864" stroke-width="1.385" fill-rule="evenodd"/>
      <path id="Path_19" data-name="Path 19" d="M508.782,253.628c.626,1.426.253.756,1.5,2" transform="translate(-431.3 -208.52)" fill="none" stroke="#1a1818" stroke-miterlimit="3.864" stroke-width="1.385" fill-rule="evenodd"/>
      <path id="Path_20" data-name="Path 20" d="M501.834,251.019a5.744,5.744,0,0,0,1.769,4.762" transform="translate(-426.979 -206.916)" fill="none" stroke="#1a1818" stroke-miterlimit="3.864" stroke-width="1.385" fill-rule="evenodd"/>
      <path id="Path_21" data-name="Path 21" d="M498.041,219.441l-.284,6.624.544,2.635a6.647,6.647,0,0,1,.414,3.139c.062,2.117.546,2.231-.792,5.371l-.5-17.022Z" transform="translate(-424.313 -187.499)" fill="#1a1818" stroke="#1a1818" stroke-miterlimit="3.864" stroke-width="1.385" fill-rule="evenodd"/>
      <line id="Line_1" data-name="Line 1" x1="14.002" y2="6.417" transform="translate(54.731 17.65)" fill="none" stroke="#ff9d00" stroke-miterlimit="3.864" stroke-width="1.385"/>
      <line id="Line_2" data-name="Line 2" x1="8.611" y2="5.31" transform="translate(54.474 17.196)" fill="none" stroke="#ff9d00" stroke-miterlimit="3.864" stroke-width="1.385"/>
      <line id="Line_3" data-name="Line 3" x1="10.651" y2="8.74" transform="translate(53.584 12.123)" fill="none" stroke="#ff9d00" stroke-miterlimit="3.864" stroke-width="1.385"/>
      <line id="Line_4" data-name="Line 4" x1="5.787" y2="5.641" transform="translate(52.407 13.787)" fill="none" stroke="#ff9d00" stroke-miterlimit="3.864" stroke-width="1.385"/>
      <line id="Line_5" data-name="Line 5" x1="7.406" y2="9.219" transform="translate(50.807 8.555)" fill="none" stroke="#ff9d00" stroke-miterlimit="3.864" stroke-width="1.385"/>
      <line id="Line_6" data-name="Line 6" x1="2.667" y2="5.199" transform="translate(49.342 11.487)" fill="none" stroke="#ff9d00" stroke-miterlimit="3.864" stroke-width="1.385"/>
      <line id="Line_7" data-name="Line 7" x1="3.309" y2="9.717" transform="translate(47.727 6.234)" fill="none" stroke="#ff9d00" stroke-miterlimit="3.864" stroke-width="1.385"/>
      <line id="Line_8" data-name="Line 8" x1="0.771" y2="6.011" transform="translate(45.266 9.118)" fill="none" stroke="#ff9d00" stroke-miterlimit="3.864" stroke-width="1.385"/>
      <line id="Line_9" data-name="Line 9" x1="0.169" y2="9.702" transform="translate(42.891 5.316)" fill="none" stroke="#ff9d00" stroke-miterlimit="3.864" stroke-width="1.385"/>
      <line id="Line_10" data-name="Line 10" x2="0.192" y2="3.482" transform="translate(40.827 11.716)" fill="none" stroke="#ff9d00" stroke-miterlimit="3.864" stroke-width="1.385"/>
      <line id="Line_11" data-name="Line 11" x2="1.489" y2="10.152" transform="translate(37.324 5.712)" fill="none" stroke="#ff9d00" stroke-miterlimit="3.864" stroke-width="1.385"/>
      <line id="Line_12" data-name="Line 12" x2="2.225" y2="4.578" transform="translate(34.878 12.036)" fill="none" stroke="#ff9d00" stroke-miterlimit="3.864" stroke-width="1.385"/>
      <line id="Line_13" data-name="Line 13" x2="5.142" y2="7.743" transform="translate(30.174 10.114)" fill="none" stroke="#ff9d00" stroke-miterlimit="3.864" stroke-width="1.385"/>
      <line id="Line_14" data-name="Line 14" x2="4.763" y2="5.119" transform="translate(29.613 13.784)" fill="none" stroke="#ff9d00" stroke-miterlimit="3.864" stroke-width="1.385"/>
      <line id="Line_15" data-name="Line 15" x2="8.421" y2="6.243" transform="translate(24.655 14.191)" fill="none" stroke="#ff9d00" stroke-miterlimit="3.864" stroke-width="1.385"/>
      <line id="Line_16" data-name="Line 16" x2="3.965" y2="2.273" transform="translate(28.164 19.773)" fill="none" stroke="#ff9d00" stroke-miterlimit="3.864" stroke-width="1.385"/>
      <line id="Line_17" data-name="Line 17" x2="14.232" y2="5.85" transform="translate(17.448 17.673)" fill="none" stroke="#ff9d00" stroke-miterlimit="3.864" stroke-width="1.385"/>
      <line id="Line_18" data-name="Line 18" x2="5.039" y2="1.373" transform="translate(26.333 23.489)" fill="none" stroke="#ff9d00" stroke-miterlimit="3.864" stroke-width="1.385"/>
      <path id="Path_22" data-name="Path 22" d="M392.094,297.392c-.756.071-1.529-.136-2.3-.1-.572.023-.488.878-.327,1.425a20.311,20.311,0,0,0,.825,2.556c.11.26.425-.161.7-.158.3,0,.457.294.732.189.24-.091.3-.282.414-.508a4.5,4.5,0,0,1,.456-1.254,3.2,3.2,0,0,0,.028-1.456C392.626,297.388,392.094,297.392,392.094,297.392Zm5.057-.857-1.078-.321c-1.6,1.882-1.348,4.9-.93,5.038.389.134.619-.749.867-1.308a1.284,1.284,0,0,0,.551-.713c.1-.264-.012-.451.075-.721.1-.311.582-.426.434-.713C396.836,297.357,396.962,297.057,397.15,296.536Zm5.755,8.135c-.405.142-.72.091-1.028.386a1.683,1.683,0,0,1-1.217.536,3.687,3.687,0,0,1-1.858-.152,3.277,3.277,0,0,0-1.8-.573,2.468,2.468,0,0,0-1.812.374c-.547.465.3.626.646.87a1.552,1.552,0,0,0,1.378.264,4.965,4.965,0,0,1,2.211,1.107,2.437,2.437,0,0,0,2.828-.132c.387-.4.441-.955.686-1.25C403.213,305.773,403.064,305.206,402.905,304.671Zm-8.168,2.592a1.193,1.193,0,0,0-.029,1.564c.36.492.485.841,1.006,1.1l1.721,1.235a7.155,7.155,0,0,0,3.423.48c1.348-.025.946-.029,1.033-.462a.761.761,0,0,0-1.013-.741,5.722,5.722,0,0,1-1.737-.451,6.674,6.674,0,0,1-2.021-1.3c-.575-.51-.555-1.284-1.3-1.483A1.565,1.565,0,0,0,394.737,307.263Zm5.963-3.641c.545-.231.611-.652.257-1a.94.94,0,0,0-1.08-.2.845.845,0,0,0-.618.831C399.305,303.829,400.164,303.848,400.7,303.622Zm6.587-8.654a1.781,1.781,0,0,0-1.805.014c-.275.187-.322.41-.55.652a4.7,4.7,0,0,1-.8.707,12.341,12.341,0,0,1-1.335.638c-.316.178-.556.208-.792.484-.17.2-.161.382-.311.595-.288.41-.76.378-.977.827-.311.64-.016.886.713.551.429-.2.87-.1,1.091-.52.6-.266.926-.42,1.517-.7a8.705,8.705,0,0,0,.85-.405c.3-.181.429-.343.729-.528a4.708,4.708,0,0,1,1.031-.524c.324-.118.588,0,.847-.226a1.164,1.164,0,0,0,.307-.475c.118-.244.271-.4.193-.66C407.9,295.088,407.589,295.086,407.286,294.968Zm-23.814.2c-.345-.354-.449-.677-.887-.9a2.7,2.7,0,0,0-1.141-.2c-.468-.046-.739.041-1.2-.02-.26-.035-.422-.248-.661-.134-.33.166-.206.6-.075.947.151.392.531.4.83.691.331.327.376.662.766.916.194.128.433.045.538.25.17.335-.487.359-.849.451-.573.146-.915-.286-1.5-.207-.315.044-.631-.05-.786.229-.193.343.278.558.523.867a5.7,5.7,0,0,0,1.964,1.3c.879.516,1.415.73,2.326,1.185a11.9,11.9,0,0,0,1.907.934,6.4,6.4,0,0,0,1.619.331c.441.288.89.071,1.328-.218.733-.483.083-.9-.154-1.384a1.888,1.888,0,0,0-1.366-1.107,3.827,3.827,0,0,1-1.254-.52c-.382-.233-.492-.516-.89-.721-.469-.246-1.5.173-1.318-.325.15-.412.652-.333,1.087-.282.27.032.424.378.66.236.257-.154.063-.473.012-.766C384.795,295.9,384.053,295.769,383.473,295.17Zm-1.7,6.872a1.813,1.813,0,0,0-1.023-.018c-.312.118-.549.221-.672.53-.1.261,0,.447.048.723s.258.421.23.711c-.022.234-.233.317-.252.553a.648.648,0,0,0,.23.666c.263.169.476-.122.786-.168.4-.057.627,0,1.025-.057a6.7,6.7,0,0,0,.723-.154c.31-.075.484-.127.786-.227.263-.087.508-.017.667-.244.131-.187-.116-.451.067-.585s.327.079.54.069c.351-.014.76.051.847-.286.083-.31-.232-.457-.469-.67a2.366,2.366,0,0,0-1.372-.461c-.439-.08-.7,0-1.143-.079C382.385,302.27,382.184,302.1,381.773,302.042Zm6.771,5.052c-.709.469-1.315.225-2.115.5a5.286,5.286,0,0,0-2.672,1.383c-.78.874-1.412,1.688-1.071,2.808.14.461.164,1.042.642,1.052a.646.646,0,0,0,.669-.41c.093-.258-.176-.41-.167-.681a1.646,1.646,0,0,1,.375-.88c.3-.5.459-1.05,1.042-1.081a4.282,4.282,0,0,0,1.992-.551,4.6,4.6,0,0,0,.85-.526,1.569,1.569,0,0,0,1.15-.3c.359-.242.315-.644.678-.876a2.163,2.163,0,0,1,1.205-.219c.516-.033,1.122.559,1.324.083a.8.8,0,0,0-.166-.786c-.24-.37-.725-.177-1.012-.512-.153-.182-.1-.4-.3-.532-.355-.243-.654.179-1.028.386a4.462,4.462,0,0,0-.729.53A8.711,8.711,0,0,1,388.545,307.094Zm4.254-14.559a20.332,20.332,0,0,0-2.824-.051c-.642.027.725.9,1.367.925A1.467,1.467,0,0,0,392.8,292.535Zm-19.23.369,15.787-1.259,11.29,1.04,8.882,1.367c-.434,1.079-.226,1.534-1.478,2.584-2.225,1.856-4.222,2.663-7.173,4.112a.521.521,0,0,0-.2.518.629.629,0,0,0,1.04.214c.519.577.823.591,1.209,1.584.307.788.689,1.253,1.194,2.367-.539,1.036-.588,2.036-.953,2.659a2.937,2.937,0,0,1-1.458,1.147c-1.245.173-1.73-.776-2.135-.885-.784-.211-1.048-.018-.984.439.76.382.744.766,1.938,1.012a4.859,4.859,0,0,1,2.71,1.546,1.748,1.748,0,0,1-1.017,2.2c-.5.2-1.221.648-1.366-.023-.19-.851-.508-1.249-1.091-1.39-4.026.183-5.295-2.7-5.295-2.7a4.8,4.8,0,0,0,.745,2.359,4.265,4.265,0,0,1-.107,2.151c-.141.453-1.185,1.339-1.639.231a14.958,14.958,0,0,1-1.02-4.712c-.382-.919-1.3-.675-1.37.042a19,19,0,0,1-.166,2.084,3.077,3.077,0,0,1-1.016,1.937c-1.312.367-1.153-.8-1.153-.8.46-.644.579-3.315.579-3.315a1.676,1.676,0,0,0-1.241.045,3.9,3.9,0,0,1-1.45.495c-.843-.144-.984.5-.984.5a6.473,6.473,0,0,0-.1,2.216c-1.809,2.446-3.463.2-3.463.2a3.624,3.624,0,0,1,.866-4.55c1.245-.63,2.875-.862,4.526-1.615a1.3,1.3,0,0,0,.617-1.881c-.409-.488-1-.29-1.626-.16a4.413,4.413,0,0,0-1.182.567,12.711,12.711,0,0,0-4.51.638c-.773.213-1.77.3-1.944-.685a7.1,7.1,0,0,1-.043-1.241c.023-1.628,2.726-3.015,2.726-3.015-1.421-1.132-1.805-1.6-3.727-3.064C375.752,296.317,374.226,295.915,373.568,292.9Z" transform="translate(-348.159 -231.896)" fill="#1a1818" stroke="#1a1818" stroke-miterlimit="3.864" stroke-width="0.513" fill-rule="evenodd"/>
      <path id="Path_23" data-name="Path 23" d="M416.377,203.931a2.06,2.06,0,0,0,1.477-.869,8.071,8.071,0,0,1,3.2-2.588,45.521,45.521,0,0,1,8.126-2.946,20.617,20.617,0,0,0,6.117-2.818,18.5,18.5,0,0,1,1.879-.935l.2,3.5,2.127-.65.28,3.822c0,.084,1.543-.4,1.9-.422l.17,2.529,1.993-.676.118,1.743,1.225-.661,1.013,22.582c-.016.131.724,9.7.957,10.572,0,0-7.059-1.9-11.064-2.569-1.317-.216-12.85-1.753-18.273-1.136a3.656,3.656,0,0,1-.832.8c-.855.587-.89.463-1.5.419s-.591-.084-1.4-.619a1.346,1.346,0,0,1-.425-1.123l3.076.036Z" transform="translate(-372.813 -171.717)" fill="#fff69b" stroke="#1a1818" stroke-miterlimit="3.864" stroke-width="1.385" fill-rule="evenodd"/>
      <path id="Path_24" data-name="Path 24" d="M442.741,203.829l1.8,27.687.248,2.879c-4.9-.307-10.536-.374-14.495.674a57.723,57.723,0,0,0-7.933,2.986" transform="translate(-378.159 -177.899)" fill="none" stroke="#1a1818" stroke-miterlimit="3.864" stroke-width="1.385" fill-rule="evenodd"/>
      <path id="Path_25" data-name="Path 25" d="M445.129,211.091l1.654,30.247a71.112,71.112,0,0,0-12.951-1.229,32.045,32.045,0,0,0-11.473,2.411" transform="translate(-378.159 -182.365)" fill="none" stroke="#1a1818" stroke-miterlimit="3.864" stroke-width="1.385" fill-rule="evenodd"/>
      <path id="Path_26" data-name="Path 26" d="M447.444,215.7l1.7,27.278.174,2.809a89.513,89.513,0,0,0-12.759-1.835,85.445,85.445,0,0,0-13.6,1.381" transform="translate(-378.53 -185.2)" fill="none" stroke="#1a1818" stroke-miterlimit="3.864" stroke-width="1.385" fill-rule="evenodd"/>
      <path id="Path_27" data-name="Path 27" d="M447.567,215.483l1.993-.676,1.209,30.106.067,1.959a117.974,117.974,0,0,0-13.77-2.422,111.592,111.592,0,0,0-14.105.333" transform="translate(-378.53 -184.65)" fill="none" stroke="#1a1818" stroke-miterlimit="3.864" stroke-width="1.385" fill-rule="evenodd"/>
      <path id="Path_28" data-name="Path 28" d="M419.26,237.192l.391,21.184-1.426-.024.921-14.609-.161,14.527-.76.082" transform="translate(-375.618 -198.414)" fill="none" stroke="#1a1818" stroke-miterlimit="3.864" stroke-width="1.385" fill-rule="evenodd"/>
      <path id="Path_29" data-name="Path 29" d="M370.694,204.389a2.053,2.053,0,0,1-1.493-.843,8.042,8.042,0,0,0-3.249-2.531,45.423,45.423,0,0,0-8.172-2.8,20.7,20.7,0,0,1-6.165-2.712,18.466,18.466,0,0,0-1.894-.9l-.137,3.5-2.142-.61-.211,3.821c0,.087-1.547-.372-1.9-.386l-.124,2.533-2.006-.642-.089,1.745-1.234-.638-.618,22.594c.017.132-.555,9.713-.774,10.588,0,0,7.024-2.025,11.015-2.761,1.312-.24,12.816-1.977,18.251-1.455a3.553,3.553,0,0,0,.848.789c.862.571.9.449,1.5.394s.592-.094,1.391-.644a1.353,1.353,0,0,0,.409-1.131l-3.076.089Z" transform="translate(-327.815 -172.223)" fill="#fff69b" stroke="#1a1818" stroke-miterlimit="3.864" stroke-width="1.385" fill-rule="evenodd"/>
      <path id="Path_30" data-name="Path 30" d="M361.669,204.656l-1.312,27.715-.2,2.884c4.9-.394,10.525-.556,14.5.421a57.878,57.878,0,0,1,7.985,2.844" transform="translate(-339.915 -178.408)" fill="none" stroke="#1a1818" stroke-miterlimit="3.864" stroke-width="1.385" fill-rule="evenodd"/>
      <path id="Path_31" data-name="Path 31" d="M356.211,212.021,355.087,242.3a71.208,71.208,0,0,1,12.928-1.457,32.13,32.13,0,0,1,11.514,2.21" transform="translate(-336.796 -182.936)" fill="none" stroke="#1a1818" stroke-miterlimit="3.864" stroke-width="1.385" fill-rule="evenodd"/>
      <path id="Path_32" data-name="Path 32" d="M350.885,216.726l-1.23,27.305-.122,2.812a88.926,88.926,0,0,1,12.722-2.062,85.534,85.534,0,0,1,13.626,1.144" transform="translate(-333.381 -185.829)" fill="none" stroke="#1a1818" stroke-miterlimit="3.864" stroke-width="1.385" fill-rule="evenodd"/>
      <path id="Path_33" data-name="Path 33" d="M348.39,216.569l-2.006-.642-.684,30.122-.035,1.962a117.4,117.4,0,0,1,13.728-2.663,111.374,111.374,0,0,1,14.109.087" transform="translate(-331.002 -185.338)" fill="none" stroke="#1a1818" stroke-miterlimit="3.864" stroke-width="1.385" fill-rule="evenodd"/>
      <path id="Path_34" data-name="Path 34" d="M418.991,237.07l-.02,21.188,1.422-.052-1.174-14.59.414,14.523.76.067" transform="translate(-376.077 -198.338)" fill="none" stroke="#1a1818" stroke-miterlimit="3.864" stroke-width="1.385" fill-rule="evenodd"/>
    </g>
    <g id="Group_5" data-name="Group 5" transform="translate(258.443 229.798)">
      <g id="Group_3" data-name="Group 3" transform="translate(0 22.175)">
        <path id="Path_35" data-name="Path 35" d="M266.9,444.081a1.828,1.828,0,0,1-.92-.82l-2.434-3.475.774-.7a3.11,3.11,0,0,1,2.022-.979v-.348h-2.931v.348c.247.02.577.07.577.38,0,.339-.6.827-.917,1.138l-1.455,1.445v-2.215c0-.559.237-.66.6-.719l.154-.03v-.348h-3.921v.348c.629.13.753.28.753.929v4.1c0,.588-.134.808-.753.926v.351h3.921v-.351c-.64-.137-.753-.268-.753-.926v-1.579l.186-.158,1.64,2.486a.439.439,0,0,1,.114.268v.26H266.9Z" transform="translate(-258.443 -437.213)" fill="#fff" fill-rule="evenodd"/>
        <path id="Path_36" data-name="Path 36" d="M294.857,446.984h2.777v-.33c-.714-.139-.589-.4-.63-.978v-3.743l-2.8.1v.331c.63.117.62.449.64.987v1.907c0,.52-.042,1.187-.764,1.187-.61,0-.631-.568-.631-1.016v-3.495l-2.8.1v.331c.621.117.621.436.641.987v1.825a1.691,1.691,0,0,0,1.837,1.907,2.282,2.282,0,0,0,1.723-.667Z" transform="translate(-278.249 -439.777)" fill="#fff" fill-rule="evenodd"/>
        <path id="Path_37" data-name="Path 37" d="M322.923,441.933l-2.724.1v.331c.65.117.609.408.64.987v2.326c-.031.549.02.849-.63.978v.33H323.7v-.33c-.669-.081-.68-.409-.7-.978v-1.387c0-.549.01-1.817.825-1.817.064.01.156.041.156.12a.216.216,0,0,1-.042.11.8.8,0,0,0-.145.429.765.765,0,0,0,.806.709.916.916,0,0,0,.866-.988,1.019,1.019,0,0,0-1.061-.919,1.6,1.6,0,0,0-1.478.887Z" transform="translate(-296.416 -439.777)" fill="#fff" fill-rule="evenodd"/>
        <path id="Path_38" data-name="Path 38" d="M350.339,446.984h2.777v-.33c-.714-.139-.59-.4-.631-.978v-3.743l-2.8.1v.331c.631.117.619.449.641.987v1.907c0,.52-.042,1.187-.765,1.187-.609,0-.631-.568-.631-1.016v-3.495l-2.8.1v.331c.62.117.62.436.64.987v1.825a1.692,1.692,0,0,0,1.839,1.907,2.284,2.284,0,0,0,1.723-.667Z" transform="translate(-312.365 -439.777)" fill="#fff" fill-rule="evenodd"/>
        <path id="Path_39" data-name="Path 39" d="M378.283,436.648l-2.816.137v.331c.649.13.617.358.649.977v4.333c-.032.549.02.849-.63.978v.33h3.427v-.33c-.619-.119-.63-.439-.63-.978Z" transform="translate(-330.399 -436.528)" fill="#fff" fill-rule="evenodd"/>
        <path id="Path_40" data-name="Path 40" d="M399.745,446.984h2.777v-.33c-.713-.139-.591-.4-.631-.978v-3.743l-2.8.1v.331c.63.117.617.449.637.987v1.907c0,.52-.039,1.187-.763,1.187-.608,0-.627-.568-.627-1.016v-3.495l-2.8.1v.331c.621.117.621.436.641.987v1.825a1.69,1.69,0,0,0,1.835,1.907,2.285,2.285,0,0,0,1.726-.667Z" transform="translate(-342.743 -439.777)" fill="#fff" fill-rule="evenodd"/>
        <path id="Path_41" data-name="Path 41" d="M427.284,446.984h-.2a2.109,2.109,0,0,0-.237.618c.052.249.422.231.422.539-.04.419-.783.508-1.115.508a1.619,1.619,0,0,1-.228-.02l-.027.23a3.043,3.043,0,0,0,.669.058c.555,0,1.619-.149,1.619-.875,0-.541-1-.461-1-.761A1.466,1.466,0,0,1,427.284,446.984Zm2.238-5.042H429.3a.423.423,0,0,1-.288.161c-.343,0-.879-.17-1.458-.17-1.134,0-2.186.308-2.186,1.616,0,2.037,2.816,1.837,2.816,2.7,0,.348-.4.491-.721.491-.9,0-1.485-.959-1.827-1.649l-.339.01.007,1.978h.228a.485.485,0,0,1,.382-.221,13.651,13.651,0,0,0,1.561.228c1.225,0,2.486-.248,2.486-1.7,0-1.018-.694-1.317-1.548-1.656-.4-.161-1.446-.48-1.446-1.008,0-.331.342-.459.642-.459a1.909,1.909,0,0,1,1.587,1.266l.344-.02Z" transform="translate(-361.042 -439.777)" fill="#fff" fill-rule="evenodd"/>
        <path id="Path_42" data-name="Path 42" d="M481.323,437.891h-1.777a2.754,2.754,0,0,1-1.937,1.057v.279h.874c.465.01.485.18.485.59v3.343c0,.809-.327.967-1.135,1v.339h4.521v-.339c-.858-.052-1.031-.221-1.031-1.049Z" transform="translate(-393.204 -437.292)" fill="#fff" fill-rule="evenodd"/>
        <path id="Path_43" data-name="Path 43" d="M510.953,441.036a9.929,9.929,0,0,1-.11,1.646c-.114.729-.539,1.438-1.393,1.438-.292,0-.745-.071-.745-.359,0-.271.568-.341.568-.939a.81.81,0,0,0-.886-.748.989.989,0,0,0-1.044.967c0,1.039,1.261,1.4,2.127,1.4,2.654,0,3.789-1.338,3.789-3.813,0-2.127-1.044-3.075-3.21-3.075-1.489,0-2.943.419-2.943,2.137a1.892,1.892,0,0,0,2.158,1.925A2.375,2.375,0,0,0,510.953,441.036Zm-1.618-1.737c0-.508.1-1.4.815-1.4.8,0,.8,1.06.8,1.6,0,.606-.039,1.586-.8,1.586-.783,0-.815-1.028-.815-1.627Z" transform="translate(-411.34 -437.084)" fill="#fff" fill-rule="evenodd"/>
        <path id="Path_44" data-name="Path 44" d="M545.9,437.942h-5.235l-.445,2.586h.261c.173-.481.236-1.009.867-1.009h3.726c-.536,1-2.489,1.327-3.439,2.245a2.427,2.427,0,0,0-.816,1.718,1.254,1.254,0,0,0,1.407,1.2c1.145,0,1.218-.839,1.308-1.7.259-2.055,1.777-2.453,2.119-3.931Z" transform="translate(-431.703 -437.323)" fill="#fff" fill-rule="evenodd"/>
        <path id="Path_45" data-name="Path 45" d="M570.061,440.379l.257.17a1.926,1.926,0,0,1,1.3-.61,1.319,1.319,0,0,1,1.394,1.5c0,.9-.174,1.9-1.319,1.9-.228-.011-.7-.081-.7-.379s.575-.38.575-.967a.817.817,0,0,0-.886-.77,1.009,1.009,0,0,0-1,1.057c.052,1.178,1.579,1.418,2.536,1.418,1.552,0,3.171-.5,3.171-2.277a2.04,2.04,0,0,0-.858-1.607,3.161,3.161,0,0,0-1.825-.478,3.591,3.591,0,0,0-2.158.62l.237-1.429H574.6l.35-2.184h-.26c-.217.549-.721.618-1.268.618h-2.88Z" transform="translate(-449.816 -436.336)" fill="#fff" fill-rule="evenodd"/>
      </g>
      <g id="Group_4" data-name="Group 4" transform="translate(0.542)">
        <path id="Path_46" data-name="Path 46" d="M261.506,383.275a1.74,1.74,0,0,0,3.47,0,1.637,1.637,0,0,0-1.727-1.6A1.656,1.656,0,0,0,261.506,383.275Zm5.144,15.079c-1.092-.28-1.286-.542-1.286-1.866v-8.6a2.039,2.039,0,0,1,.143-.883c.211-.46.739-.522,1.143-.622v-.7h-6.8v.7c1.072.26,1.285.562,1.285,1.866v8.24c0,1.184-.231,1.625-1.285,1.866v.7h6.8Z" transform="translate(-259.85 -380.549)" fill="#fff" fill-rule="evenodd"/>
        <path id="Path_47" data-name="Path 47" d="M290.022,399.04v3.85c0,1.224-.14,1.586-1.268,1.866v.7h6.784v-.7c-.4-.082-.935-.162-1.163-.622a2.239,2.239,0,0,1-.124-.863v-9a2.237,2.237,0,0,1,.124-.863c.228-.46.759-.541,1.163-.622v-.7h-6.784v.7c1.111.26,1.268.6,1.268,1.866v3.389H286.9V394.65c0-1.042,0-1.564,1.023-1.807l.228-.059v-.7h-6.768v.7c1.076.26,1.289.562,1.289,1.866v8.24c0,1.184-.231,1.625-1.289,1.866v.7h6.768v-.7c-1.111-.3-1.251-.584-1.251-1.866v-3.85Z" transform="translate(-273.093 -386.952)" fill="#fff" fill-rule="evenodd"/>
        <path id="Path_48" data-name="Path 48" d="M333.3,400.1h-.831c-.651,1.264-1.567,3.388-2.661,4.152a2.228,2.228,0,0,1-1.321.339h-.915V394.65c0-.943.018-1.684,1.022-1.807l.475-.059v-.7H322.06v.7c1.074.26,1.286.562,1.286,1.866v8.24c0,1.184-.229,1.625-1.286,1.866v.7h10.713Z" transform="translate(-298.102 -386.952)" fill="#fff" fill-rule="evenodd"/>
        <path id="Path_49" data-name="Path 49" d="M357.891,378.757l-3.381,4.069.315.382,3.066-2.447,3.067,2.447.317-.382Zm1.852,5.133h-3.578c-.105.48-.211.961-.352,1.422l-2.222,6.9c-.386,1.161-.951,3.087-1.831,3.87a2.463,2.463,0,0,1-1.023.481v.7h4.442v-.7c-.636-.143-1.288-.383-1.288-1.265a10.013,10.013,0,0,1,.565-2.584h3.47a11.031,11.031,0,0,1,.6,2.805c0,.764-.616.9-1.18,1.044v.7h6.98v-.7c-1.216-.321-1.252-1.064-1.6-2.265Zm-3.4,2.324,1.358,5.557h-2.978Z" transform="translate(-315.735 -378.757)" fill="#fff" fill-rule="evenodd"/>
        <path id="Path_50" data-name="Path 50" d="M396.837,391.343h-.543c-.126.241-.3.461-.584.461a2.049,2.049,0,0,1-.476-.081,9.648,9.648,0,0,0-2.728-.421c-2.362,0-4.53,1.083-4.53,4.149,0,5.415,6.166,4.432,6.166,7.24a1.674,1.674,0,0,1-1.76,1.726c-2.184,0-3.3-2.669-3.719-4.713l-.827.04.053,5.493h.528a.956.956,0,0,1,.74-.559,16.449,16.449,0,0,0,2.817.58c3.084,0,5.567-1.082,5.567-5.032-.209-4.892-6.375-3.529-6.375-6.759a1.426,1.426,0,0,1,1.407-1.422c2.044,0,3.014,1.723,3.49,3.75l.828-.041Z" transform="translate(-338.547 -386.471)" fill="#fff" fill-rule="evenodd"/>
        <path id="Path_51" data-name="Path 51" d="M435.911,405.6c.28-1.142.6-2.286.913-3.43l.635-2.285.567-1.926c.4-1.3.828-3.569,1.584-4.569a1.709,1.709,0,0,1,1.111-.6v-.7h-4.2v.7a1.226,1.226,0,0,1,1.252,1.284,7.4,7.4,0,0,1-.212,1.282l-1.832,7.539-2.2-7.679a4.607,4.607,0,0,1-.193-1.2c0-.841.544-1.061,1.163-1.223v-.7h-7.1v.7c1.075.2,1.217.843,1.552,1.9l3.258,10.908Z" transform="translate(-362.873 -386.952)" fill="#fff" fill-rule="evenodd"/>
        <path id="Path_52" data-name="Path 52" d="M468.928,392.084h-3.576c-.105.48-.212.961-.355,1.422l-2.217,6.9c-.391,1.162-.953,3.087-1.832,3.871a2.5,2.5,0,0,1-1.024.481v.7h4.439v-.7c-.635-.142-1.284-.383-1.284-1.265a10.117,10.117,0,0,1,.563-2.584h3.471a11,11,0,0,1,.6,2.805c0,.764-.615.9-1.178,1.044v.7h6.976v-.7c-1.217-.321-1.254-1.064-1.6-2.265Zm-3.4,2.324,1.355,5.557h-2.978Z" transform="translate(-382.871 -386.952)" fill="#fff" fill-rule="evenodd"/>
        <path id="Path_53" data-name="Path 53" d="M511.223,404.775a3.326,3.326,0,0,1-1.568-1.643l-4.159-6.98,1.324-1.4a5.078,5.078,0,0,1,3.454-1.966v-.7h-5.006v.7c.425.04.988.142.988.763,0,.681-1.024,1.664-1.567,2.287L502.2,398.74V394.29c0-1.123.405-1.324,1.02-1.446l.264-.059v-.7h-6.693v.7c1.073.26,1.284.562,1.284,1.866v8.24c0,1.184-.228,1.625-1.284,1.866v.7h6.693v-.7c-1.091-.28-1.284-.542-1.284-1.866v-3.169l.315-.319,2.8,4.993a.988.988,0,0,1,.193.542v.519h5.708Z" transform="translate(-405.542 -386.952)" fill="#fff" fill-rule="evenodd"/>
        <path id="Path_54" data-name="Path 54" d="M546.914,392.084H535.763v.7c1.076.26,1.284.562,1.284,1.866v8.24c0,1.184-.228,1.625-1.284,1.866v.7h6.925v-.7c-1.147-.162-1.411-.521-1.411-1.866v-4.15c2.167.06,2.288.442,2.786,2.667h.649v-5.936h-.649c-.532,2.066-.689,2.426-2.786,2.486v-5.072h1.092c2.379,0,2.906,1.664,3.875,3.789h.832Z" transform="translate(-429.503 -386.952)" fill="#fff" fill-rule="evenodd"/>
        <path id="Path_55" data-name="Path 55" d="M574.494,404.756c-1.091-.28-1.284-.542-1.284-1.866v-8.6a2.006,2.006,0,0,1,.143-.883c.208-.46.74-.522,1.142-.622v-.7h-6.8v.7c1.075.26,1.284.562,1.284,1.866v8.24c0,1.184-.229,1.625-1.284,1.866v.7h6.8Z" transform="translate(-449.138 -386.952)" fill="#fff" fill-rule="evenodd"/>
      </g>
    </g>
  </g>
</svg>
