<svg xmlns="http://www.w3.org/2000/svg" width="34.103" height="31.012" viewBox="0 0 34.103 31.012">
  <g id="Group_121" data-name="Group 121" transform="translate(0)">
    <g id="Group_115" data-name="Group 115" transform="translate(0 0.456)">
      <path id="Path_25880" data-name="Path 25880" d="M533.524,400.279a2.313,2.313,0,0,1-.438-.042c-1.564-.3-2.956-2.1-3.848-3.563a2.366,2.366,0,0,1-.35-1.841c.308-1.248,1.676-2.064,3-2.853.493-.294.959-.572,1.35-.859a11.192,11.192,0,0,0,2.093-2.614c1.107-1.658,2.362-3.537,4.166-4.477,3.069-1.6,6.922-.092,7.085-.027a.647.647,0,0,1-.48,1.2c-.039-.016-3.472-1.35-6.007-.027-1.51.788-2.668,2.521-3.688,4.049a11.866,11.866,0,0,1-2.4,2.939c-.441.323-.955.63-1.452.926-1.044.622-2.227,1.328-2.406,2.052a1.117,1.117,0,0,0,.2.856c1.038,1.7,2.155,2.808,2.988,2.967a.915.915,0,0,0,.766-.183c1.719-1.289,3.954-1.487,6.644-.59,2.285.762,5.794-.467,7.373-3.513a.647.647,0,1,1,1.148.6c-1.944,3.751-6.149,5.072-8.93,4.144-2.3-.766-4.081-.635-5.459.4A2.218,2.218,0,0,1,533.524,400.279Z" transform="translate(-528.826 -383.296)" fill="#003e92"/>
    </g>
    <g id="Group_116" data-name="Group 116" transform="translate(16.003)">
      <path id="Path_25881" data-name="Path 25881" d="M605.7,389.148a.647.647,0,0,1-.352-1.19c1.416-.916,3.708-2.864,3.831-4.194a.976.976,0,0,0-.343-.845,1.433,1.433,0,0,0-1.184-.438c-1.363.128-2.92,1.9-3.405,2.57a.646.646,0,1,1-1.048-.757c.085-.118,2.113-2.893,4.333-3.1a2.748,2.748,0,0,1,2.194.787,2.264,2.264,0,0,1,.741,1.9c-.221,2.386-3.988,4.883-4.416,5.16A.644.644,0,0,1,605.7,389.148Z" transform="translate(-603.072 -381.181)" fill="#003e92"/>
    </g>
    <g id="Group_117" data-name="Group 117" transform="translate(11.681 15.69)">
      <path id="Path_25882" data-name="Path 25882" d="M590.445,469.3a.647.647,0,0,1-.626-.488c-.028-.11-.055-.221-.08-.333-1.144-5.082-6.559-13.418-6.614-13.5a.647.647,0,0,1,1.083-.707c.228.349,5.6,8.617,6.792,13.924q.034.151.072.3a.648.648,0,0,1-.627.806Z" transform="translate(-583.019 -453.976)" fill="#003e92"/>
    </g>
    <g id="Group_118" data-name="Group 118" transform="translate(21.067 5.315)">
      <path id="Path_25883" data-name="Path 25883" d="M638.813,410.79a.648.648,0,0,1-.1-.008c-.54-.083-1.093-.177-1.644-.278-4.673-.861-8.406-2.136-10.242-3.5a.647.647,0,1,1,.77-1.038c1.658,1.23,5.286,2.45,9.705,3.265.538.1,1.079.19,1.606.272a.647.647,0,0,1-.1,1.286Z" transform="translate(-626.567 -405.84)" fill="#003e92"/>
    </g>
    <g id="Group_119" data-name="Group 119" transform="translate(9.503 6.842)">
      <path id="Path_25884" data-name="Path 25884" d="M575.105,414.021a1.1,1.1,0,1,1-1.1-1.1A1.1,1.1,0,0,1,575.105,414.021Z" transform="translate(-572.913 -412.925)" fill="#003e92"/>
    </g>
    <g id="Group_120" data-name="Group 120" transform="translate(18.649 9.27)">
      <path id="Path_25885" data-name="Path 25885" d="M615.995,445.88a.647.647,0,0,1-.2-1.261,19.981,19.981,0,0,0,13.715-19.072q0-.345-.011-.688a.647.647,0,1,1,1.292-.042q.012.363.012.729a21.272,21.272,0,0,1-14.605,20.3A.648.648,0,0,1,615.995,445.88Z" transform="translate(-615.348 -424.192)" fill="#003e92"/>
    </g>
    <path id="Path_25886" data-name="Path 25886" d="M539.878,433.847a.672.672,0,0,0-1.337-.1,2.4,2.4,0,0,1-.635.53.647.647,0,1,0,.685,1.1,2.932,2.932,0,0,0,1.194-1.194A.669.669,0,0,0,539.878,433.847Z" transform="translate(-535.71 -421.967)" fill="#003e92"/>
  </g>
</svg>
