<svg xmlns="http://www.w3.org/2000/svg" width="24.162" height="21.519" viewBox="0 0 24.162 21.519">
  <g id="Group_60" data-name="Group 60" transform="translate(753.336 -431.311)">
    <g id="Group_61" data-name="Group 61" transform="translate(-753.336 431.311)">
      <path id="Path_62" data-name="Path 62" d="M-570.1,560.651h-4.761V555.89a.631.631,0,0,0-.631-.631.631.631,0,0,0-.631.631v4.761h-4.761a.631.631,0,0,0-.631.631.631.631,0,0,0,.631.631h4.761v4.761a.631.631,0,0,0,.631.631.631.631,0,0,0,.631-.631v-4.761h4.761a.631.631,0,0,0,.631-.631A.631.631,0,0,0-570.1,560.651Z" transform="translate(593.628 -546.578)" fill="#fff"/>
      <path id="Path_63" data-name="Path 63" d="M-732.213,436.986c0-.065,0-.138,0-.214a6.48,6.48,0,0,0-1.907-4.532,6.474,6.474,0,0,0-4.607-1.929,6.359,6.359,0,0,0-3.572,1.117,6.86,6.86,0,0,0-1.752,1.709,6.862,6.862,0,0,0-1.752-1.709,6.358,6.358,0,0,0-3.572-1.117,6.473,6.473,0,0,0-4.607,1.929,6.481,6.481,0,0,0-1.907,4.532c0,.074,0,.146,0,.214-.028.451-.127,4.185,3.971,8.205a94.7,94.7,0,0,0,7.446,6.491.662.662,0,0,0,.416.148.662.662,0,0,0,.416-.148c2.134-1.734,3.479-2.858,4.642-3.878l.047-.042v-1.769l-.232.209c-1.209,1.088-2.625,2.284-4.874,4.116a89.747,89.747,0,0,1-6.933-6.065,12.193,12.193,0,0,1-3.242-5.034,6.663,6.663,0,0,1-.341-2.141.659.659,0,0,0,0-.1c0-.066-.005-.136-.005-.2a5.237,5.237,0,0,1,5.194-5.141,5.387,5.387,0,0,1,4.728,3.084.664.664,0,0,0,.6.376.663.663,0,0,0,.6-.376,5.387,5.387,0,0,1,4.727-3.084,5.237,5.237,0,0,1,5.194,5.141c0,.062,0,.126-.005.2a.635.635,0,0,0,0,.1,6.672,6.672,0,0,1-.341,2.142,11.861,11.861,0,0,1-2.736,4.514l-.217.234h1.772l.042-.05C-732.1,440.4-732.19,437.359-732.213,436.986Z" transform="translate(755.886 -430.311)" fill="#edf5ff"/>
    </g>
  </g>
</svg>
