<svg xmlns="http://www.w3.org/2000/svg" width="30.182" height="30.106" viewBox="0 0 30.182 30.106">
  <g id="Group_126" data-name="Group 126" transform="translate(0.65 0.65)">
    <g id="Group_125" data-name="Group 125">
      <path id="Path_25887" data-name="Path 25887" d="M2676.938,2491.179l7.31-7.018a5.1,5.1,0,0,0,1.464-3.59,5.01,5.01,0,0,0-4.959-5.06,4.895,4.895,0,0,1-7.63,0,5.01,5.01,0,0,0-4.959,5.06,5.1,5.1,0,0,0,1.464,3.59Z" transform="translate(-2662.497 -2475.511)" fill="none" stroke="currentColor" stroke-miterlimit="10" stroke-width="1.3"/>
      <path id="Path_25888" data-name="Path 25888" d="M2768.857,2529.969a2.583,2.583,0,0,1-.723,1.809l-5.545,5.323" transform="translate(-2748.149 -2524.909)" fill="none" stroke="currentColor" stroke-miterlimit="10" stroke-width="1.3"/>
      <path id="Path_25889" data-name="Path 25889" d="M2695.865,2506.853a2.585,2.585,0,0,1-.722-1.809,2.507,2.507,0,0,1,2.452-2.553" transform="translate(-2686.969 -2499.983)" fill="none" stroke="currentColor" stroke-miterlimit="10" stroke-width="1.3"/>
      <path id="Path_25890" data-name="Path 25890" d="M2847.286,2524.754v-6.267a2.507,2.507,0,0,1,2.507-2.507h.627l.026,14.409a3.969,3.969,0,0,1-1.112,2.761l-4.929,5.107a3.133,3.133,0,0,0-.879,2.176v1.242" transform="translate(-2821.564 -2512.219)" fill="none" stroke="currentColor" stroke-miterlimit="10" stroke-width="1.3"/>
      <path id="Path_25891" data-name="Path 25891" d="M2762.59,2615.092v-3.485a8.148,8.148,0,0,1,2.428-5.8l3.269-3.222,2.645-4.844a1.564,1.564,0,0,1,2.94.746,1.591,1.591,0,0,1-.195.746l-3.76,6.894" transform="translate(-2748.149 -2585.635)" fill="none" stroke="currentColor" stroke-miterlimit="10" stroke-width="1.3"/>
      <path id="Path_25892" data-name="Path 25892" d="M2610.338,2524.754v-6.267a2.507,2.507,0,0,0-2.507-2.507h-.626l-.026,14.409a3.963,3.963,0,0,0,1.112,2.761l4.929,5.107a3.135,3.135,0,0,1,.879,2.176v1.242" transform="translate(-2607.178 -2512.219)" fill="none" stroke="currentColor" stroke-miterlimit="10" stroke-width="1.3"/>
      <path id="Path_25893" data-name="Path 25893" d="M2652.466,2615.092v-3.485a8.149,8.149,0,0,0-2.428-5.8l-3.269-3.222-2.645-4.844a1.563,1.563,0,0,0-2.939.746,1.588,1.588,0,0,0,.194.746l3.76,6.894" transform="translate(-2638.024 -2585.635)" fill="none" stroke="currentColor" stroke-miterlimit="10" stroke-width="1.3"/>
    </g>
  </g>
</svg>
