<svg xmlns="http://www.w3.org/2000/svg" width="37.969" height="24.355" viewBox="0 0 37.969 24.355">
  <g id="Group_147" data-name="Group 147" transform="translate(0.25 0.278)">
    <path id="Path_25959" data-name="Path 25959" d="M101.977,348.574l7.448,2.858v7.678a2.736,2.736,0,0,0,.768,1.82,16.411,16.411,0,0,0,19.822-.007,2.736,2.736,0,0,0,.768-1.82v-7.671l1.849-.709a.411.411,0,1,0-.294-.767l-11.551,4.432a2.282,2.282,0,0,1-1.366,0l-16.98-6.515,16.98-6.515a2.283,2.283,0,0,1,1.366,0l16.98,6.515-1.585.608a.411.411,0,1,0,.294.767l1.754-.673c.529-.2.608-.527.608-.7s-.079-.5-.608-.7l-17.15-6.58a3.061,3.061,0,0,0-1.954,0l-17.149,6.58c-.529.2-.608.527-.608.7S101.448,348.371,101.977,348.574Zm18.127,6.74a2.816,2.816,0,0,0,.977-.16l8.881-3.407V359.1a1.929,1.929,0,0,1-.495,1.209,15.6,15.6,0,0,1-18.726.007,1.928,1.928,0,0,1-.495-1.209v-7.363l8.881,3.408A2.819,2.819,0,0,0,120.1,355.314Z" transform="translate(-101.369 -340.43)" fill="currentColor" stroke="currentColor" stroke-miterlimit="10" stroke-width="0.5"/>
    <path id="Path_25960" data-name="Path 25960" d="M204.689,379.4a2.108,2.108,0,1,0,2.518-2.067v-4a1.5,1.5,0,0,0-1.227-1.442l-13.527-2.01a.411.411,0,0,0-.121.812l13.52,2.009a.68.68,0,0,1,.534.63v4A2.111,2.111,0,0,0,204.689,379.4Zm3.394,0a1.286,1.286,0,1,1-1.286-1.286A1.288,1.288,0,0,1,208.083,379.4Z" transform="translate(-173.376 -363.831)" fill="currentColor" stroke="currentColor" stroke-miterlimit="10" stroke-width="0.5"/>
    <path id="Path_25961" data-name="Path 25961" d="M251.094,431.97a1.133,1.133,0,0,0,.893.408h3.191a1.1,1.1,0,0,0,1.1-1.367l-.747-3.437a.411.411,0,0,0-.8.174l.747,3.438a.279.279,0,0,1-.3.371h-3.191a.279.279,0,0,1-.3-.371l.747-3.438a.411.411,0,0,0-.8-.174l-.747,3.437A1.134,1.134,0,0,0,251.094,431.97Z" transform="translate(-220.162 -409.423)" fill="currentColor" stroke="currentColor" stroke-miterlimit="10" stroke-width="0.5"/>
  </g>
</svg>
