<svg xmlns="http://www.w3.org/2000/svg" width="38.273" height="29.471" viewBox="0 0 38.273 29.471">
  <g id="Group_152" data-name="Group 152" transform="translate(0 0)">
    <g id="Group_150" data-name="Group 150">
      <path id="Path_25962" data-name="Path 25962" d="M1631.836,3562.893a.624.624,0,0,0-.014-.079.585.585,0,0,0-.021-.108c-.005-.017-.007-.034-.014-.051s0-.008,0-.012a.576.576,0,0,0-.039-.056.6.6,0,0,0-.057-.087c-.013-.015-.022-.031-.036-.045a.59.59,0,0,0-.075-.056c-.016-.012-.026-.03-.044-.04s-.024-.007-.036-.013-.021-.019-.035-.025l-18.08-7.911a.628.628,0,0,0-.5,0l-18.079,7.911c-.019.009-.031.025-.049.035a.6.6,0,0,0-.119.084.561.561,0,0,0-.069.078.579.579,0,0,0-.047.053,6.861,6.861,0,0,0-.169,6.533,6.636,6.636,0,0,0,.18,6.531.617.617,0,0,0,.274.231l18.079,7.91a.625.625,0,0,0,.5,0l18.08-7.91a.624.624,0,0,0,.273-.912,5.525,5.525,0,0,1,.012-5.526c.009-.015.009-.032.017-.048a.606.606,0,0,0,.042-.117s0,0,0-.006,0,0,0-.007a.63.63,0,0,0,.017-.1.557.557,0,0,0,0-.1.6.6,0,0,0-.036-.168c0-.008,0-.016-.005-.024s-.006-.007-.008-.012a.632.632,0,0,0-.041-.108,5.524,5.524,0,0,1,.012-5.525c.007-.011.007-.025.013-.037s.018-.021.024-.034,0-.008,0-.012a.617.617,0,0,0,.02-.086.594.594,0,0,0,.021-.1C1631.83,3562.925,1631.836,3562.909,1631.836,3562.893Zm-19.941,12.874-16.413-7.182a5.346,5.346,0,0,1-.135-4.883l16.936,7.41A6.958,6.958,0,0,0,1611.9,3575.767Zm18.434-6.982-16.932,7.408a5.565,5.565,0,0,1,.181-4.9l16.462-7.2A6.376,6.376,0,0,0,1630.329,3568.785Zm-17.2-13.121,16.522,7.229-16.522,7.229-16.521-7.229Zm-17.786,14.254,16.936,7.411a6.958,6.958,0,0,0-.388,4.654l-16.413-7.182A5.346,5.346,0,0,1,1595.347,3569.918Zm18.05,12.491a5.565,5.565,0,0,1,.181-4.9l16.462-7.2a6.375,6.375,0,0,0,.289,4.7Z" transform="translate(-1593.565 -3554.358)" fill="currentColor"/>
    </g>
    <g id="Group_151" data-name="Group 151" transform="translate(11.503 4.232)">
      <path id="Path_25963" data-name="Path 25963" d="M1673.383,3587.347a.632.632,0,0,0-.032.148.657.657,0,0,0-.016.091.64.64,0,0,0,.016.088.631.631,0,0,0,.033.151s0,.007,0,.011.014.013.018.022a.619.619,0,0,0,.185.217.558.558,0,0,0,.067.046.53.53,0,0,0,.052.037l4.164,1.807a.621.621,0,0,0,.5,0l7.444-3.257a.605.605,0,0,0,.067-.047.393.393,0,0,0,.2-.189.571.571,0,0,0,.061-.087s0-.009,0-.013a.626.626,0,0,0,.027-.128.652.652,0,0,0,.02-.109.625.625,0,0,0-.016-.085.614.614,0,0,0-.033-.152s0-.008,0-.011a.589.589,0,0,0-.052-.074.4.4,0,0,0-.195-.2.594.594,0,0,0-.077-.053l-4.165-1.808a.624.624,0,0,0-.5,0l-7.419,3.247-.011,0-.013.006a.542.542,0,0,0-.047.033.438.438,0,0,0-.22.21.642.642,0,0,0-.055.08A.08.08,0,0,0,1673.383,3587.347Zm8.019-2.338,2.6,1.129-5.883,2.573-2.6-1.129Z" transform="translate(-1673.334 -3583.704)" fill="currentColor"/>
    </g>
  </g>
</svg>
