<svg xmlns="http://www.w3.org/2000/svg" width="35.817" height="29.597" viewBox="0 0 35.817 29.597">
  <g id="Group_144" data-name="Group 144" transform="translate(0 0)">
    <g id="Group_143" data-name="Group 143">
      <path id="Path_25953" data-name="Path 25953" d="M415.092,489.582h-21.74a.447.447,0,0,1-.447-.447v-3.4a.445.445,0,0,1,0-.065,4.131,4.131,0,0,1,4.063-3.511h1.877a.447.447,0,0,1,.316.131l2.809,2.809,1.533-1.534-2.387-2.387a.447.447,0,0,1-.118-.425,8.856,8.856,0,0,0,.224-2.013.447.447,0,0,1,.692-.368,4.045,4.045,0,0,0,4.605,0,.447.447,0,0,1,.692.368,8.975,8.975,0,0,0,.223,2.016.447.447,0,0,1-.118.425l-2.387,2.385,1.534,1.534,2.807-2.809a.448.448,0,0,1,.316-.131h1.878a4.131,4.131,0,0,1,4.063,3.511.463.463,0,0,1,0,.065v3.4A.447.447,0,0,1,415.092,489.582Zm-21.293-.894h20.846v-2.924a3.232,3.232,0,0,0-3.174-2.716h-1.693l-2.993,2.994a.46.46,0,0,1-.633,0l-1.932-1.931-1.93,1.931a.46.46,0,0,1-.633,0l-2.994-2.994h-1.691a3.232,3.232,0,0,0-3.174,2.716Zm8.129-7.972,2.293,2.293,2.294-2.292a9.185,9.185,0,0,1-.163-1.228,4.863,4.863,0,0,1-4.26,0A9.094,9.094,0,0,1,401.927,480.716Z" transform="translate(-392.904 -459.985)" fill="currentColor"/>
      <path id="Path_25954" data-name="Path 25954" d="M420.066,425.147a5.039,5.039,0,0,1-2.792-.866,8.3,8.3,0,0,1-3.046-4.095.782.782,0,0,1-.158.016c-.593,0-.857-.605-1.112-1.191a5.969,5.969,0,0,0-.372-.756,1.722,1.722,0,0,1-.323-1.467,1.066,1.066,0,0,1,.71-.65,1.162,1.162,0,0,1,.612-.033V414.3a.447.447,0,0,1,.262-.407,4.206,4.206,0,0,0,1.418-1.55c.1-.175.211-.37.314-.578a.447.447,0,0,1,.654-.17,11.562,11.562,0,0,0,3.532,1.516,12.589,12.589,0,0,0,3.1.428,4.7,4.7,0,0,0,2.12-.39.447.447,0,0,1,.585.141,11.1,11.1,0,0,1,.9,1.617.445.445,0,0,1,.04.185v1.027a1.159,1.159,0,0,1,.65.024,1.063,1.063,0,0,1,.707.649,1.723,1.723,0,0,1-.323,1.467,6,6,0,0,0-.372.756c-.255.586-.519,1.191-1.112,1.191a.8.8,0,0,1-.158-.016,8.288,8.288,0,0,1-3.046,4.095A5.04,5.04,0,0,1,420.066,425.147Zm-5.589-6.052a.447.447,0,0,1,.426.311,7.655,7.655,0,0,0,2.861,4.128,4.045,4.045,0,0,0,4.605,0,7.649,7.649,0,0,0,2.86-4.128.447.447,0,0,1,.752-.169.356.356,0,0,0,.056.049,3.816,3.816,0,0,0,.317-.63,6.776,6.776,0,0,1,.432-.871c.229-.368.273-.6.241-.693-.018-.049-.093-.083-.153-.1a.366.366,0,0,0-.285.05l-.089.394a.447.447,0,0,1-.883-.1v-2.145a10.411,10.411,0,0,0-.585-1.083,6.27,6.27,0,0,1-2.169.326,13.493,13.493,0,0,1-3.324-.457,13.134,13.134,0,0,1-3.392-1.373q-.059.1-.118.2a5.648,5.648,0,0,1-1.552,1.756v2.775a.447.447,0,0,1-.867.156l-.185-.5a.278.278,0,0,0-.168,0c-.061.021-.137.055-.154.1-.032.09.011.325.24.692a6.76,6.76,0,0,1,.433.872,3.826,3.826,0,0,0,.317.631.369.369,0,0,0,.056-.049A.447.447,0,0,1,414.478,419.1Z" transform="translate(-408.75 -405.152)" fill="currentColor"/>
      <path id="Path_25955" data-name="Path 25955" d="M417.144,388.586a.447.447,0,0,1-.419-.291l-.325-.877a.434.434,0,0,1-.019-.065c-.007-.035-.073-.355-.151-.85-.085-.559-.149-1.113-.189-1.648a1.531,1.531,0,0,1-.015-.212c-.187-3.03.4-4.988,1.733-5.819a3.9,3.9,0,0,1,.768-.368,3.086,3.086,0,0,1,.9-1.2,6.082,6.082,0,0,1,3.923-1.3,8.4,8.4,0,0,1,3.676.869l.031.017.022.012c2.584,1.326,3.385,4.487,3.273,7.009a14.427,14.427,0,0,1-.148,1.517c-.037.256-.173.938-.229,1.218l-.036.182-.328,1.455a.447.447,0,0,1-.883-.1v-2.145a10.411,10.411,0,0,0-.585-1.083,6.27,6.27,0,0,1-2.169.326,13.5,13.5,0,0,1-3.324-.457,13.131,13.131,0,0,1-3.392-1.373q-.059.1-.118.2a5.648,5.648,0,0,1-1.552,1.756v2.775a.447.447,0,0,1-.447.447Zm11.167-4.689a.447.447,0,0,1,.37.2,10.77,10.77,0,0,1,.649,1.1,13.483,13.483,0,0,0,.13-1.363c.1-2.148-.582-5.055-2.807-6.183l-.038-.021a7.493,7.493,0,0,0-3.264-.768,5.2,5.2,0,0,0-3.356,1.1,2.126,2.126,0,0,0-.7,1,.447.447,0,0,1-.312.3,2.841,2.841,0,0,0-.758.335c-1.007.626-1.473,2.408-1.311,5.016,0,.009,0,.019,0,.028a.708.708,0,0,0,0,.084l.035-.018a4.206,4.206,0,0,0,1.418-1.55c.1-.175.211-.37.314-.578a.447.447,0,0,1,.654-.17,11.562,11.562,0,0,0,3.532,1.516,12.59,12.59,0,0,0,3.1.428,4.7,4.7,0,0,0,2.12-.39A.446.446,0,0,1,428.311,383.9Z" transform="translate(-411.861 -375.958)" fill="currentColor"/>
      <g id="Group_142" data-name="Group 142" transform="translate(5.405 19.911)">
        <path id="Path_25956" data-name="Path 25956" d="M426.78,493.531a.447.447,0,0,1-.316-.131l-3.218-3.219a.447.447,0,0,1,0-.633l2.167-2.165a.447.447,0,0,1,.633,0l3.216,3.217a.447.447,0,0,1,0,.632L427.1,493.4a.446.446,0,0,1-.316.131Zm-2.586-3.665,2.586,2.586,1.533-1.534-2.584-2.584Z" transform="translate(-423.114 -487.253)" fill="currentColor"/>
        <path id="Path_25957" data-name="Path 25957" d="M456.728,493.531a.447.447,0,0,1-.316-.131l-2.167-2.167a.447.447,0,0,1,0-.633l3.218-3.216a.447.447,0,0,1,.632,0l2.165,2.165a.447.447,0,0,1,0,.632l-3.216,3.218A.447.447,0,0,1,456.728,493.531Zm-1.534-2.614,1.534,1.534,2.584-2.586-1.532-1.532Z" transform="translate(-448.568 -487.253)" fill="currentColor"/>
      </g>
    </g>
    <path id="Path_25958" data-name="Path 25958" d="M531.608,458.681a2.5,2.5,0,0,0-2.462-2.127H528.3l-1.216-1.216a.355.355,0,0,0-.3-.095c-.014-.132-.022-.273-.028-.42a5.04,5.04,0,0,0,1.623-2.249h.034c.4,0,.578-.4.733-.752a3.415,3.415,0,0,1,.21-.428,1.087,1.087,0,0,0,.2-.934.707.707,0,0,0-.468-.434.73.73,0,0,0-.129-.029l.014-.071c.026-.128.111-.557.135-.716a8.556,8.556,0,0,0,.087-.9c.067-1.5-.413-3.383-1.967-4.181l-.025-.014a5,5,0,0,0-2.187-.517,3.64,3.64,0,0,0-2.348.78,1.893,1.893,0,0,0-.537.7,2.389,2.389,0,0,0-.429.21c-.811.5-1.166,1.675-1.055,3.475a.953.953,0,0,0,.009.13c.024.316.061.642.111.97.009.054.017.1.024.149-.016,0-.033.006-.049.011a.71.71,0,0,0-.47.434,1.087,1.087,0,0,0,.2.934,3.429,3.429,0,0,1,.211.43c.153.351.326.749.732.749h.034a5.043,5.043,0,0,0,1.624,2.249c-.005.146-.014.286-.028.417a.349.349,0,0,0-.3.1l-1.217,1.216h-.842a2.5,2.5,0,0,0-2.462,2.127.339.339,0,0,0,0,.051v1.989a.351.351,0,0,0,.351.351h12.7a.351.351,0,0,0,.351-.351v-1.989A.351.351,0,0,0,531.608,458.681Zm-8.256.3h0a.353.353,0,0,0,.247.1h0a.348.348,0,0,0,.248-.1l1.064-1.065,1.065,1.065a.351.351,0,0,0,.5,0l1.722-1.723h.952a1.8,1.8,0,0,1,1.764,1.5v1.618h-12v-1.6a1.8,1.8,0,0,1,1.765-1.51h.951Zm1.016-1.513-.769.769-1.384-1.384.769-.769Zm-2.387-5.472a.353.353,0,0,0-.257-.235.36.36,0,0,0-.077-.009.352.352,0,0,0-.2.065c-.043-.08-.091-.192-.124-.268a4,4,0,0,0-.259-.52.959.959,0,0,1-.14-.313.134.134,0,0,1,.043-.02h0l.089.24a.346.346,0,0,0,.048.087l.007.01a.347.347,0,0,0,.069.065l.009.006a.35.35,0,0,0,.087.043l.008,0a.346.346,0,0,0,.163.01.35.35,0,0,0,.289-.345v-1.573a3.509,3.509,0,0,0,.894-1.027l.025-.042a7.836,7.836,0,0,0,1.926.766,7.97,7.97,0,0,0,1.964.27,3.849,3.849,0,0,0,1.228-.171,5.964,5.964,0,0,1,.29.544v1.233a.351.351,0,0,0,.312.349l.04,0h.013l.031,0,.03-.005.029-.008.029-.011.027-.012.027-.016.023-.016.026-.022.019-.018a.349.349,0,0,0,.023-.028l.015-.019a.363.363,0,0,0,.02-.036c0-.006.007-.012.01-.018a.354.354,0,0,0,.019-.057v0l.042-.187a.1.1,0,0,1,.06-.007c.019.006.03.012.034.013a.706.706,0,0,1-.133.321,4.022,4.022,0,0,0-.259.52c-.033.076-.081.187-.124.268a.351.351,0,0,0-.536.179,4.379,4.379,0,0,1-1.635,2.363,2.416,2.416,0,0,1-1,.383,2.307,2.307,0,0,1-1.589-.383h0A4.384,4.384,0,0,1,521.981,451.992Zm.087-6.1a1.565,1.565,0,0,1,.419-.186.349.349,0,0,0,.244-.236,1.151,1.151,0,0,1,.377-.54,2.951,2.951,0,0,1,1.9-.621,4.284,4.284,0,0,1,1.858.435l.03.017c1.262.64,1.646,2.3,1.591,3.528-.007.17-.021.342-.04.514h0c-.034-.059-.07-.12-.108-.181l-.029-.046c-.035-.056-.072-.113-.11-.17l0-.007h0a.356.356,0,0,0-.051-.058l-.015-.013a.344.344,0,0,0-.05-.035l-.015-.009a.347.347,0,0,0-.151-.037H527.9a.349.349,0,0,0-.063.008l-.019,0a.352.352,0,0,0-.075.029,2.155,2.155,0,0,1-.827.2c-.116.009-.239.014-.368.014a7.267,7.267,0,0,1-1.788-.247c-.2-.052-.392-.11-.579-.173a6.054,6.054,0,0,1-1.456-.7.352.352,0,0,0-.129-.054l-.009,0a.337.337,0,0,0-.062,0h-.013a.342.342,0,0,0-.074.011.351.351,0,0,0-.226.183c-.059.119-.119.231-.18.331-.034.056-.069.11-.1.161l-.035.05c-.023.033-.046.066-.07.1l-.039.051-.065.082-.038.045c-.023.027-.046.052-.069.077l-.03.032a1.951,1.951,0,0,1-.18.169l-.024.018-.038.028C521.262,447.212,521.519,446.23,522.068,445.889Zm1.709,9.343c.083.035.167.067.252.093h0c.093.029.186.053.281.073l.026.005q.129.026.259.04l.03,0c.094.009.189.016.284.016s.189-.006.283-.015l.035,0c.084-.009.168-.022.251-.039l.034-.006c.092-.019.184-.043.275-.072l.018-.006c.079-.025.157-.055.234-.087l.035-.013a5.39,5.39,0,0,0,.077.554l-.069.069-1.174,1.173-1.242-1.242a5.287,5.287,0,0,0,.078-.553Zm3.008.9h0l.053-.053.768.768-1.383,1.384-.769-.769Z" transform="translate(-495.794 -431.503)" fill="currentColor"/>
  </g>
</svg>
