<svg xmlns="http://www.w3.org/2000/svg" width="30.597" height="30.597" viewBox="0 0 30.597 30.597">
  <g id="Group_137" data-name="Group 137" transform="translate(0.5 0.5)">
    <g id="Group_133" data-name="Group 133">
      <path id="Path_25895" data-name="Path 25895" d="M1515.386,2175.8a12.223,12.223,0,0,1,20.242-9.227l-2.263,1.958,5.823.194.648-5.792-2.247,1.944a14.8,14.8,0,0,0-23.46,17.035" transform="translate(-1512.812 -2161)" fill="none" stroke="currentColor" stroke-miterlimit="10" stroke-width="1"/>
      <path id="Path_25896" data-name="Path 25896" d="M1578.653,2306.836a12.224,12.224,0,0,1-20.242,9.228l2.263-1.958-5.823-.193-.648,5.792,2.247-1.944a14.8,14.8,0,0,0,23.46-17.035" transform="translate(-1551.63 -2292.037)" fill="none" stroke="currentColor" stroke-miterlimit="10" stroke-width="1"/>
    </g>
    <g id="Group_136" data-name="Group 136" transform="translate(7.142 6.093)">
      <ellipse id="Ellipse_31" data-name="Ellipse 31" cx="2.491" cy="0.934" rx="2.491" ry="0.934" transform="translate(4.982 0)" fill="none" stroke="currentColor" stroke-miterlimit="10" stroke-width="0.7"/>
      <path id="Path_25897" data-name="Path 25897" d="M1707.8,2294.053c0,.516,1.115.934,2.491.934s2.491-.418,2.491-.934" transform="translate(-1702.818 -2291.874)" fill="none" stroke="currentColor" stroke-miterlimit="10" stroke-width="0.7"/>
      <path id="Path_25898" data-name="Path 25898" d="M1707.8,2314.083c0,.516,1.115.934,2.491.934s2.491-.418,2.491-.934" transform="translate(-1702.818 -2310.658)" fill="none" stroke="currentColor" stroke-miterlimit="10" stroke-width="0.7"/>
      <path id="Path_25899" data-name="Path 25899" d="M1707.8,2334.114c0,.516,1.115.934,2.491.934s2.491-.418,2.491-.934" transform="translate(-1702.818 -2329.444)" fill="none" stroke="currentColor" stroke-miterlimit="10" stroke-width="0.7"/>
      <path id="Path_25900" data-name="Path 25900" d="M1707.8,2354.144c0,.516,1.115.934,2.491.934s2.491-.418,2.491-.934" transform="translate(-1702.818 -2348.229)" fill="none" stroke="currentColor" stroke-miterlimit="10" stroke-width="0.7"/>
      <path id="Path_25901" data-name="Path 25901" d="M1707.8,2374.175c0,.516,1.115.934,2.491.934s2.491-.418,2.491-.934" transform="translate(-1702.818 -2367.013)" fill="none" stroke="currentColor" stroke-miterlimit="10" stroke-width="0.7"/>
      <path id="Path_25902" data-name="Path 25902" d="M1707.8,2394.205c0,.517,1.115.934,2.491.934a11.457,11.457,0,0,0,2.446-.3" transform="translate(-1702.818 -2385.799)" fill="none" stroke="currentColor" stroke-miterlimit="10" stroke-width="0.7"/>
      <path id="Path_25903" data-name="Path 25903" d="M1707.8,2414.235c0,.517,1.115.934,2.491.934.33,0,2.17-.029,2.515-.648" transform="translate(-1702.818 -2404.583)" fill="none" stroke="currentColor" stroke-miterlimit="10" stroke-width="0.7"/>
      <path id="Path_25904" data-name="Path 25904" d="M1707.8,2434.265c0,.517,1.115.934,2.491.934a5.253,5.253,0,0,0,2.446-.448" transform="translate(-1702.818 -2423.367)" fill="none" stroke="currentColor" stroke-miterlimit="10" stroke-width="0.7"/>
      <path id="Path_25905" data-name="Path 25905" d="M1707.8,2454.295c0,.517,1.115.934,2.491.934a3.807,3.807,0,0,0,2.515-.66" transform="translate(-1702.818 -2442.152)" fill="none" stroke="currentColor" stroke-miterlimit="10" stroke-width="0.7"/>
      <path id="Path_25906" data-name="Path 25906" d="M1707.8,2274.023v12.455c0,.517,1.115.934,2.491.934a8.643,8.643,0,0,0,2.721-.459" transform="translate(-1702.818 -2273.089)" fill="none" stroke="currentColor" stroke-miterlimit="10" stroke-width="0.7"/>
      <g id="Group_134" data-name="Group 134" transform="translate(0 4.982)">
        <path id="Path_25907" data-name="Path 25907" d="M1632.661,2361.617c0,.516-1.115.934-2.491.934s-2.491-.418-2.491-.934v-7.473" transform="translate(-1627.679 -2353.21)" fill="none" stroke="currentColor" stroke-miterlimit="10" stroke-width="0.7"/>
        <path id="Path_25908" data-name="Path 25908" d="M1627.679,2454.295c0,.516,1.115.934,2.491.934s2.491-.418,2.491-.934" transform="translate(-1627.679 -2447.134)" fill="none" stroke="currentColor" stroke-miterlimit="10" stroke-width="0.7"/>
        <path id="Path_25909" data-name="Path 25909" d="M1627.679,2434.265c0,.516,1.115.934,2.491.934s2.491-.418,2.491-.934" transform="translate(-1627.679 -2428.349)" fill="none" stroke="currentColor" stroke-miterlimit="10" stroke-width="0.7"/>
        <path id="Path_25910" data-name="Path 25910" d="M1627.679,2414.235c0,.516,1.115.934,2.491.934s2.491-.418,2.491-.934" transform="translate(-1627.679 -2409.565)" fill="none" stroke="currentColor" stroke-miterlimit="10" stroke-width="0.7"/>
        <path id="Path_25911" data-name="Path 25911" d="M1627.679,2394.205c0,.516,1.115.934,2.491.934s2.491-.418,2.491-.934" transform="translate(-1627.679 -2390.78)" fill="none" stroke="currentColor" stroke-miterlimit="10" stroke-width="0.7"/>
        <path id="Path_25912" data-name="Path 25912" d="M1627.679,2374.175c0,.516,1.115.934,2.491.934s2.491-.418,2.491-.934" transform="translate(-1627.679 -2371.995)" fill="none" stroke="currentColor" stroke-miterlimit="10" stroke-width="0.7"/>
        <ellipse id="Ellipse_32" data-name="Ellipse 32" cx="2.491" cy="0.934" rx="2.491" ry="0.934" transform="translate(0)" fill="none" stroke="currentColor" stroke-miterlimit="10" stroke-width="0.7"/>
      </g>
      <g id="Group_135" data-name="Group 135" transform="translate(10.122 4.982)">
        <path id="Path_25913" data-name="Path 25913" d="M1790.474,2361.617c0,.516,1.115.934,2.491.934s2.491-.418,2.491-.934v-7.473" transform="translate(-1790.474 -2353.21)" fill="none" stroke="currentColor" stroke-miterlimit="10" stroke-width="0.7"/>
        <path id="Path_25914" data-name="Path 25914" d="M1795.456,2454.295c0,.516-1.115.934-2.491.934s-2.491-.418-2.491-.934" transform="translate(-1790.474 -2447.134)" fill="none" stroke="currentColor" stroke-miterlimit="10" stroke-width="0.7"/>
        <path id="Path_25915" data-name="Path 25915" d="M1795.456,2434.265c0,.516-1.115.934-2.491.934s-2.491-.418-2.491-.934" transform="translate(-1790.474 -2428.349)" fill="none" stroke="currentColor" stroke-miterlimit="10" stroke-width="0.7"/>
        <path id="Path_25916" data-name="Path 25916" d="M1795.456,2414.235c0,.516-1.115.934-2.491.934s-2.491-.418-2.491-.934" transform="translate(-1790.474 -2409.565)" fill="none" stroke="currentColor" stroke-miterlimit="10" stroke-width="0.7"/>
        <path id="Path_25917" data-name="Path 25917" d="M1795.456,2394.205c0,.516-1.115.934-2.491.934s-2.491-.418-2.491-.934" transform="translate(-1790.474 -2390.78)" fill="none" stroke="currentColor" stroke-miterlimit="10" stroke-width="0.7"/>
        <path id="Path_25918" data-name="Path 25918" d="M1795.456,2374.175c0,.516-1.115.934-2.491.934s-2.491-.418-2.491-.934" transform="translate(-1790.474 -2371.995)" fill="none" stroke="currentColor" stroke-miterlimit="10" stroke-width="0.7"/>
        <ellipse id="Ellipse_33" data-name="Ellipse 33" cx="2.491" cy="0.934" rx="2.491" ry="0.934" fill="none" stroke="currentColor" stroke-miterlimit="10" stroke-width="0.7"/>
      </g>
      <line id="Line_32" data-name="Line 32" x1="0.023" y1="13.101" transform="translate(9.964 0.934)" fill="none" stroke="currentColor" stroke-miterlimit="10" stroke-width="0.7"/>
    </g>
  </g>
</svg>
