<svg xmlns="http://www.w3.org/2000/svg" width="27.635" height="29.897" viewBox="0 0 27.635 29.897">
  <g id="Group_139" data-name="Group 139" transform="translate(0.15 0.15)">
    <rect id="Rectangle_91" data-name="Rectangle 91" width="0.63" height="3.388" transform="translate(7.837 4.958)" fill="currentColor" stroke="currentColor" stroke-width="0.3"/>
    <path id="Path_25919" data-name="Path 25919" d="M1163.349,2017.486h.315a.315.315,0,0,1,.315.315v-3.7h-.63Z" transform="translate(-1139.74 -2009.14)" fill="currentColor" stroke="currentColor" stroke-width="0.3"/>
    <path id="Path_25920" data-name="Path 25920" d="M1163.664,2166.211h-.315v13.35h.63V2165.9A.315.315,0,0,1,1163.664,2166.211Z" transform="translate(-1139.74 -2157.235)" fill="currentColor" stroke="currentColor" stroke-width="0.3"/>
    <rect id="Rectangle_92" data-name="Rectangle 92" width="0.63" height="13.35" transform="translate(7.837 8.976)" fill="currentColor" stroke="currentColor" stroke-width="0.3"/>
    <path id="Path_25921" data-name="Path 25921" d="M1023.3,2152.981h-3.825v.63h3.825a.315.315,0,0,0,0-.63Z" transform="translate(-999.375 -2144.635)" fill="currentColor" stroke="currentColor" stroke-width="0.3"/>
    <path id="Path_25922" data-name="Path 25922" d="M979.789,2862.823h1.8v-.315a.315.315,0,0,1,.315-.315h-1.8v.315A.315.315,0,0,1,979.789,2862.823Z" transform="translate(-960.657 -2836.547)" fill="currentColor" stroke="currentColor" stroke-width="0.3"/>
    <path id="Path_25923" data-name="Path 25923" d="M666.109,2862.508a.315.315,0,0,1-.315.315h2.364v-.315a.315.315,0,0,1,.315-.315h-2.364Z" transform="translate(-654.322 -2836.547)" fill="currentColor" stroke="currentColor" stroke-width="0.3"/>
    <path id="Path_25924" data-name="Path 25924" d="M780.268,2862.508v-.315H775.6a.315.315,0,0,1,.315.315v.315h4.666A.315.315,0,0,1,780.268,2862.508Z" transform="translate(-761.451 -2836.547)" fill="currentColor" stroke="currentColor" stroke-width="0.3"/>
    <path id="Path_25925" data-name="Path 25925" d="M502.776,2862.508v-.315h-3.753v.63h4.068A.315.315,0,0,1,502.776,2862.508Z" transform="translate(-491.619 -2836.547)" fill="currentColor" stroke="currentColor" stroke-width="0.3"/>
    <path id="Path_25926" data-name="Path 25926" d="M1066.771,2862.508v.315h3.1v-.63h-3.415A.315.315,0,0,1,1066.771,2862.508Z" transform="translate(-1045.21 -2836.547)" fill="currentColor" stroke="currentColor" stroke-width="0.3"/>
    <path id="Path_25927" data-name="Path 25927" d="M652.88,2754.9a.315.315,0,0,0,.63,0V2751.9h-.63v3.006Z" transform="translate(-641.723 -2728.94)" fill="currentColor" stroke="currentColor" stroke-width="0.3"/>
    <path id="Path_25928" data-name="Path 25928" d="M763.317,2862.508a.315.315,0,0,0-.63,0v3.006h.63v-3.006Z" transform="translate(-748.851 -2836.547)" fill="currentColor" stroke="currentColor" stroke-width="0.3"/>
    <path id="Path_25929" data-name="Path 25929" d="M966.875,2754.9a.315.315,0,0,0,.63,0V2751.9h-.63v3.006Z" transform="translate(-948.058 -2728.94)" fill="currentColor" stroke="currentColor" stroke-width="0.3"/>
    <path id="Path_25930" data-name="Path 25930" d="M1054.171,2862.508a.315.315,0,0,0-.63,0v3.006h.63v-3.006Z" transform="translate(-1032.61 -2836.547)" fill="currentColor" stroke="currentColor" stroke-width="0.3"/>
    <path id="Path_25931" data-name="Path 25931" d="M207.465,2153.611v-.63H200.2v2.811h-4.389a.315.315,0,0,0,0,.63h5.019v-2.811h6.631Z" transform="translate(-195.5 -2144.635)" fill="currentColor" stroke="currentColor" stroke-width="0.3"/>
    <path id="Path_25932" data-name="Path 25932" d="M764.195,2218.286h0Z" transform="translate(-750.32 -2208.347)" fill="currentColor" stroke="currentColor" stroke-width="0.3"/>
    <path id="Path_25933" data-name="Path 25933" d="M721.1,2113.051h0Z" transform="translate(-708.276 -2105.679)" fill="currentColor" stroke="currentColor" stroke-width="0.3"/>
    <path id="Path_25934" data-name="Path 25934" d="M713.468,2138.88l.71,1.307h.717l-.709-1.307Z" transform="translate(-700.832 -2130.878)" fill="currentColor" stroke="currentColor" stroke-width="0.3"/>
    <path id="Path_25935" data-name="Path 25935" d="M821.821,2218.286h0Z" transform="translate(-806.541 -2208.347)" fill="currentColor" stroke="currentColor" stroke-width="0.3"/>
    <path id="Path_25936" data-name="Path 25936" d="M778.723,2113.051h0Z" transform="translate(-764.496 -2105.679)" fill="currentColor" stroke="currentColor" stroke-width="0.3"/>
    <path id="Path_25937" data-name="Path 25937" d="M771.094,2138.88l.71,1.307h.717l-.709-1.307Z" transform="translate(-757.053 -2130.878)" fill="currentColor" stroke="currentColor" stroke-width="0.3"/>
    <path id="Path_25938" data-name="Path 25938" d="M833.182,2113.051h0Z" transform="translate(-817.627 -2105.679)" fill="currentColor" stroke="currentColor" stroke-width="0.3"/>
    <path id="Path_25939" data-name="Path 25939" d="M825.536,2138.88l.708,1.307h.28a.314.314,0,0,1,.413,0h.023l-.708-1.307Z" transform="translate(-810.167 -2130.878)" fill="currentColor" stroke="currentColor" stroke-width="0.3"/>
    <path id="Path_25940" data-name="Path 25940" d="M928.837,2218.3a.306.306,0,0,0,.082-.011h-.165A.307.307,0,0,0,928.837,2218.3Z" transform="translate(-910.867 -2208.347)" fill="currentColor" stroke="currentColor" stroke-width="0.3"/>
    <path id="Path_25941" data-name="Path 25941" d="M881.109,2138.88l.709,1.307h.717l-.709-1.307Z" transform="translate(-864.384 -2130.878)" fill="currentColor" stroke="currentColor" stroke-width="0.3"/>
    <path id="Path_25942" data-name="Path 25942" d="M985.625,2218.286h0Z" transform="translate(-966.349 -2208.347)" fill="currentColor" stroke="currentColor" stroke-width="0.3"/>
    <path id="Path_25943" data-name="Path 25943" d="M942.527,2113.051h0Z" transform="translate(-924.304 -2105.679)" fill="currentColor" stroke="currentColor" stroke-width="0.3"/>
    <path id="Path_25944" data-name="Path 25944" d="M934.9,2138.88l.709,1.307h.717l-.709-1.307Z" transform="translate(-916.861 -2130.878)" fill="currentColor" stroke="currentColor" stroke-width="0.3"/>
    <path id="Path_25945" data-name="Path 25945" d="M785.1,2315.351a1.569,1.569,0,0,1,1.567-1.567.315.315,0,0,1-.315-.315v-.292a2.2,2.2,0,0,0-1.882,2.174v.128h.63Z" transform="translate(-770.1 -2300.923)" fill="currentColor" stroke="currentColor" stroke-width="0.3"/>
    <path id="Path_25946" data-name="Path 25946" d="M874.519,2313.784a1.569,1.569,0,0,1,1.567,1.567v.128h.63v-.128a2.2,2.2,0,0,0-1.882-2.174v.292A.315.315,0,0,1,874.519,2313.784Z" transform="translate(-857.955 -2300.923)" fill="currentColor" stroke="currentColor" stroke-width="0.3"/>
    <path id="Path_25947" data-name="Path 25947" d="M861.605,2220.6v.292a.315.315,0,1,0,.63,0v-2.607h-.63Z" transform="translate(-845.356 -2208.347)" fill="currentColor" stroke="currentColor" stroke-width="0.3"/>
    <path id="Path_25948" data-name="Path 25948" d="M866.054,2189.358h.413a.315.315,0,0,0-.413,0Z" transform="translate(-849.697 -2180.05)" fill="currentColor" stroke="currentColor" stroke-width="0.3"/>
    <path id="Path_25949" data-name="Path 25949" d="M490.031,2726.068H473.2v7.271h18.517v-7.271h-1.682Zm1.052,3.32v3.321H473.825V2726.7h17.257Z" transform="translate(-466.421 -2703.743)" fill="currentColor" stroke="currentColor" stroke-width="0.3"/>
    <path id="Path_25950" data-name="Path 25950" d="M687.91,2115.618h6.227v-2.567H686v2.567Zm5.6-.63h-6.875v-1.307h6.875Z" transform="translate(-674.038 -2105.679)" fill="currentColor" stroke="currentColor" stroke-width="0.3"/>
    <path id="Path_25951" data-name="Path 25951" d="M761.635,2407.535h-.9a.315.315,0,0,0-.311.365l.8,4.937a.315.315,0,0,0,.311.265h3.346a.315.315,0,0,0,.311-.265l.8-4.937a.315.315,0,0,0-.311-.365h-4.035Zm3.665.63-.694,4.307H761.8l-.694-4.307h4.2Z" transform="translate(-746.638 -2392.98)" fill="currentColor" stroke="currentColor" stroke-width="0.3"/>
    <path id="Path_25952" data-name="Path 25952" d="M413.234,1815.812h3.6l-3.166-4.958H397.644l-3.166,4.958h18.756Zm-17.606-.63,2.361-3.7h15.335l2.361,3.7H395.628Z" transform="translate(-389.624 -1810.854)" fill="currentColor" stroke="currentColor" stroke-width="0.3"/>
  </g>
</svg>
