<svg xmlns="http://www.w3.org/2000/svg" width="122.801" height="121.549" viewBox="0 0 122.801 121.549">
  <g id="Group_330" data-name="Group 330" transform="translate(-899 -15.47)">
    <g id="Group_6" data-name="Group 6" transform="translate(899 15.47)">
      <g id="Group_2" data-name="Group 2" transform="translate(18.463)">
        <g id="Group_1" data-name="Group 1">
          <path id="Path_1" data-name="Path 1" d="M393.539,180.226a42.976,42.976,0,1,0-43.719,42.22A42.974,42.974,0,0,0,393.539,180.226Z" transform="translate(-307.592 -136.5)" fill="#a8bee2" fill-rule="evenodd"/>
          <path id="Path_2" data-name="Path 2" d="M383.759,299.532l1.053-2.088.524-.7h1.045l6.706,1.307,6.8,1.218,2.612-.784,6.805-.7,2-.783,2.62.609.173.87-.969,1.3-2.781,1.479L406.6,303.2l-.7.7.261.782,2.175,1.479.445,1.49.089,1.914-.707,1.3-.956.261-.868.089-1.046-.35-1.567-.346-.184.7.706.88.956.522,1.219.173,1.306.522.522.871-.438.956-1.914-.348-2.619-.434-1.219-.872-3.042-2.27-1.314-.523-.872.173-1.564.534-1.392.609-1.229.348-1.131.348-.96,1.393v1.218l-.866.521-.883-.259-.347-.958v-2l.532-.956.869-.621,1.478-.609,1.83-.522,1.664-.782.256-1.218-1.129-1.131-1.663.261-2.782.784-1.489.348-2,.262-.347-.7-.086-1.218.261-1.053.694-.784,1.132-.434-1.565-2.175-2.089-1.49Z" transform="translate(-355.147 -236.552)" fill="#00973d" fill-rule="evenodd"/>
          <path id="Path_3" data-name="Path 3" d="M388.529,190.989a11.44,11.44,0,1,1,11.439,11.441A11.44,11.44,0,0,1,388.529,190.989Z" transform="translate(-358.125 -163.377)" fill="#ff9d00" fill-rule="evenodd"/>
        </g>
        <path id="Path_4" data-name="Path 4" d="M327.42,215.318l-3.919-4.694c-.459-1.109-.618,1.323-.352,2.249a3.981,3.981,0,0,0,.817,1.8l2.616,2.319a7.3,7.3,0,0,1-3.863-2.34,6.02,6.02,0,0,1-1.11-1.146c-.31-.411-.288.988-.285,1.366a5.226,5.226,0,0,0,1.461,3.317,12.827,12.827,0,0,0,3.775,2.411l-4.036-1.443a7.933,7.933,0,0,1-3.289-1.273c-.245-.156-.242.492-.122.916a8.821,8.821,0,0,0,1.817,2.5,2.489,2.489,0,0,1-1.406.2c-.469.035-.29-.25-.932-.2-.469.037.749,1.772,1.716,2.2a1.625,1.625,0,0,1-1.21.069c-.23-.1.4,1.675,1.13,2.317,0,0,1.889.1,2.369.215a11.846,11.846,0,0,0-1.825,2.1,12.889,12.889,0,0,1-1.843,1.8l-.846.7a6.969,6.969,0,0,0,2.649.269,3.883,3.883,0,0,0,1.628-1.414l.954-1.814.068,1.172-.773,1.46c-.416,1.263-2,2.746-1.449,2.513,1.282-.534,2.029-.572,2.744-1.248l1.346-.68,1.023,1.172Z" transform="translate(-314.141 -182.602)" fill="#00973d" stroke="#1a1818" stroke-miterlimit="3.864" stroke-width="1.385" fill-rule="evenodd"/>
        <path id="Path_5" data-name="Path 5" d="M337.678,221.121a9.39,9.39,0,0,1-2.024-2.549" transform="translate(-325.113 -187.742)" fill="none" stroke="#1a1818" stroke-miterlimit="3.864" stroke-width="1.385" fill-rule="evenodd"/>
        <path id="Path_6" data-name="Path 6" d="M335.039,229.6a6,6,0,0,1-2.849-1.989" transform="translate(-322.95 -193.383)" fill="none" stroke="#1a1818" stroke-miterlimit="3.864" stroke-width="1.385" fill-rule="evenodd"/>
        <path id="Path_7" data-name="Path 7" d="M332.948,239.007a10.79,10.79,0,0,1-4.147-1.375" transform="translate(-320.834 -199.642)" fill="none" stroke="#1a1818" stroke-miterlimit="3.864" stroke-width="1.385" fill-rule="evenodd"/>
        <path id="Path_8" data-name="Path 8" d="M331.426,244.4a16.445,16.445,0,0,1-4.457-1.207" transform="translate(-319.69 -203.115)" fill="none" stroke="#1a1818" stroke-miterlimit="3.864" stroke-width="1.385" fill-rule="evenodd"/>
        <path id="Path_9" data-name="Path 9" d="M329.2,248.309c-.943.01-3.325.488-4.215.158" transform="translate(-318.448 -206.308)" fill="none" stroke="#1a1818" stroke-miterlimit="3.864" stroke-width="1.385" fill-rule="evenodd"/>
        <path id="Path_10" data-name="Path 10" d="M327.43,255.47c-.657,1.367-.272.726-1.53,1.894" transform="translate(-319.023 -210.779)" fill="none" stroke="#1a1818" stroke-miterlimit="3.864" stroke-width="1.385" fill-rule="evenodd"/>
        <path id="Path_11" data-name="Path 11" d="M333.746,253.1a5.6,5.6,0,0,1-1.89,4.58" transform="translate(-322.741 -209.297)" fill="none" stroke="#1a1818" stroke-miterlimit="3.864" stroke-width="1.385" fill-rule="evenodd"/>
        <path id="Path_12" data-name="Path 12" d="M338.77,221.635l.051,6.468-.621,2.55a6.457,6.457,0,0,0-.511,3.047c-.132,2.061-.61,2.155.592,5.262l1.069-16.577Z" transform="translate(-326.255 -189.654)" fill="#1a1818" stroke="#1a1818" stroke-miterlimit="3.864" stroke-width="1.385" fill-rule="evenodd"/>
        <path id="Path_13" data-name="Path 13" d="M496.929,213.294l4.084-4.554c.5-1.091.568,1.344.27,2.259a3.954,3.954,0,0,1-.877,1.772l-2.7,2.224a7.285,7.285,0,0,0,3.942-2.2,5.966,5.966,0,0,0,1.149-1.108c.323-.4.257,1,.238,1.376a5.2,5.2,0,0,1-1.576,3.265,12.753,12.753,0,0,1-3.857,2.276l4.083-1.3a7.876,7.876,0,0,0,3.331-1.158c.254-.146.228.5.092.922a8.841,8.841,0,0,1-1.9,2.429,2.469,2.469,0,0,0,1.4.25c.466.054.3-.236.937-.163.465.054-.81,1.744-1.79,2.132a1.592,1.592,0,0,0,1.2.112c.239-.085-.457,1.66-1.205,2.278,0,0-1.891.039-2.375.131a11.885,11.885,0,0,1,1.749,2.16,13.167,13.167,0,0,0,1.779,1.865l.822.726a6.95,6.95,0,0,1-2.659.175,3.9,3.9,0,0,1-1.576-1.468l-.891-1.844-.108,1.166.718,1.485c.374,1.278,1.906,2.816,1.36,2.564-1.26-.58-2-.644-2.7-1.344l-1.322-.728-1.061,1.137Z" transform="translate(-425.805 -181.431)" fill="#00973d" stroke="#1a1818" stroke-miterlimit="3.864" stroke-width="1.385" fill-rule="evenodd"/>
        <path id="Path_14" data-name="Path 14" d="M498.771,219.04a9.488,9.488,0,0,0,2.112-2.478" transform="translate(-426.955 -186.487)" fill="none" stroke="#1a1818" stroke-miterlimit="3.864" stroke-width="1.385" fill-rule="evenodd"/>
        <path id="Path_15" data-name="Path 15" d="M499.772,227.6a5.989,5.989,0,0,0,2.916-1.888" transform="translate(-427.58 -192.199)" fill="none" stroke="#1a1818" stroke-miterlimit="3.864" stroke-width="1.385" fill-rule="evenodd"/>
        <path id="Path_16" data-name="Path 16" d="M499.414,237.078a10.82,10.82,0,0,0,4.191-1.231" transform="translate(-427.357 -198.528)" fill="none" stroke="#1a1818" stroke-miterlimit="3.864" stroke-width="1.385" fill-rule="evenodd"/>
        <path id="Path_17" data-name="Path 17" d="M500.242,242.52a16.42,16.42,0,0,0,4.5-1.053" transform="translate(-427.874 -202.037)" fill="none" stroke="#1a1818" stroke-miterlimit="3.864" stroke-width="1.385" fill-rule="evenodd"/>
        <path id="Path_18" data-name="Path 18" d="M502.8,246.258c.946.044,3.309.605,4.212.305" transform="translate(-429.469 -205.028)" fill="none" stroke="#1a1818" stroke-miterlimit="3.864" stroke-width="1.385" fill-rule="evenodd"/>
        <path id="Path_19" data-name="Path 19" d="M508.782,253.628c.61,1.391.246.738,1.461,1.95" transform="translate(-433.206 -209.629)" fill="none" stroke="#1a1818" stroke-miterlimit="3.864" stroke-width="1.385" fill-rule="evenodd"/>
        <path id="Path_20" data-name="Path 20" d="M501.832,251.019a5.6,5.6,0,0,0,1.726,4.645" transform="translate(-428.818 -208)" fill="none" stroke="#1a1818" stroke-miterlimit="3.864" stroke-width="1.385" fill-rule="evenodd"/>
        <path id="Path_21" data-name="Path 21" d="M498.026,219.441l-.277,6.461.531,2.57a6.484,6.484,0,0,1,.4,3.062c.061,2.065.533,2.176-.773,5.238l-.492-16.6Z" transform="translate(-426.111 -188.285)" fill="#1a1818" stroke="#1a1818" stroke-miterlimit="3.864" stroke-width="1.385" fill-rule="evenodd"/>
        <line id="Line_1" data-name="Line 1" x1="13.658" y2="6.259" transform="translate(53.385 17.215)" fill="none" stroke="#ff9d00" stroke-miterlimit="3.864" stroke-width="1.385"/>
        <line id="Line_2" data-name="Line 2" x1="8.399" y2="5.179" transform="translate(53.134 16.773)" fill="none" stroke="#ff9d00" stroke-miterlimit="3.864" stroke-width="1.385"/>
        <line id="Line_3" data-name="Line 3" x1="10.389" y2="8.525" transform="translate(52.266 11.825)" fill="none" stroke="#ff9d00" stroke-miterlimit="3.864" stroke-width="1.385"/>
        <line id="Line_4" data-name="Line 4" x1="5.645" y2="5.502" transform="translate(51.117 13.448)" fill="none" stroke="#ff9d00" stroke-miterlimit="3.864" stroke-width="1.385"/>
        <line id="Line_5" data-name="Line 5" x1="7.224" y2="8.992" transform="translate(49.558 8.344)" fill="none" stroke="#ff9d00" stroke-miterlimit="3.864" stroke-width="1.385"/>
        <line id="Line_6" data-name="Line 6" x1="2.601" y2="5.071" transform="translate(48.128 11.204)" fill="none" stroke="#ff9d00" stroke-miterlimit="3.864" stroke-width="1.385"/>
        <line id="Line_7" data-name="Line 7" x1="3.227" y2="9.478" transform="translate(46.553 6.081)" fill="none" stroke="#ff9d00" stroke-miterlimit="3.864" stroke-width="1.385"/>
        <line id="Line_8" data-name="Line 8" x1="0.752" y2="5.863" transform="translate(44.152 8.894)" fill="none" stroke="#ff9d00" stroke-miterlimit="3.864" stroke-width="1.385"/>
        <line id="Line_9" data-name="Line 9" x1="0.164" y2="9.463" transform="translate(41.836 5.186)" fill="none" stroke="#ff9d00" stroke-miterlimit="3.864" stroke-width="1.385"/>
        <line id="Line_10" data-name="Line 10" x2="0.187" y2="3.396" transform="translate(39.822 11.428)" fill="none" stroke="#ff9d00" stroke-miterlimit="3.864" stroke-width="1.385"/>
        <line id="Line_11" data-name="Line 11" x2="1.452" y2="9.903" transform="translate(36.406 5.572)" fill="none" stroke="#ff9d00" stroke-miterlimit="3.864" stroke-width="1.385"/>
        <line id="Line_12" data-name="Line 12" x2="2.17" y2="4.465" transform="translate(34.02 11.74)" fill="none" stroke="#ff9d00" stroke-miterlimit="3.864" stroke-width="1.385"/>
        <line id="Line_13" data-name="Line 13" x2="5.016" y2="7.552" transform="translate(29.432 9.865)" fill="none" stroke="#ff9d00" stroke-miterlimit="3.864" stroke-width="1.385"/>
        <line id="Line_14" data-name="Line 14" x2="4.646" y2="4.993" transform="translate(28.885 13.445)" fill="none" stroke="#ff9d00" stroke-miterlimit="3.864" stroke-width="1.385"/>
        <line id="Line_15" data-name="Line 15" x2="8.214" y2="6.09" transform="translate(24.048 13.842)" fill="none" stroke="#ff9d00" stroke-miterlimit="3.864" stroke-width="1.385"/>
        <line id="Line_16" data-name="Line 16" x2="3.867" y2="2.217" transform="translate(27.471 19.286)" fill="none" stroke="#ff9d00" stroke-miterlimit="3.864" stroke-width="1.385"/>
        <line id="Line_17" data-name="Line 17" x2="13.882" y2="5.706" transform="translate(17.019 17.238)" fill="none" stroke="#ff9d00" stroke-miterlimit="3.864" stroke-width="1.385"/>
        <line id="Line_18" data-name="Line 18" x2="4.915" y2="1.339" transform="translate(25.685 22.911)" fill="none" stroke="#ff9d00" stroke-miterlimit="3.864" stroke-width="1.385"/>
        <path id="Path_22" data-name="Path 22" d="M391.638,297.251c-.737.069-1.491-.132-2.241-.1-.557.023-.476.857-.319,1.39a19.81,19.81,0,0,0,.8,2.494c.108.254.415-.157.687-.154.289,0,.446.287.714.184.234-.088.293-.275.4-.5a4.385,4.385,0,0,1,.445-1.224,3.126,3.126,0,0,0,.028-1.42C392.157,297.247,391.638,297.251,391.638,297.251Zm4.932-.835-1.052-.313c-1.556,1.836-1.314,4.776-.907,4.914.379.131.6-.73.845-1.276a1.252,1.252,0,0,0,.538-.7c.1-.258-.012-.44.073-.7.1-.3.568-.415.423-.7C396.263,297.216,396.387,296.924,396.57,296.415Zm5.613,7.935c-.4.139-.7.089-1,.377a1.642,1.642,0,0,1-1.187.523,3.6,3.6,0,0,1-1.812-.148,3.2,3.2,0,0,0-1.752-.559,2.407,2.407,0,0,0-1.768.365c-.533.453.293.611.63.849a1.514,1.514,0,0,0,1.344.258,4.843,4.843,0,0,1,2.156,1.08,2.377,2.377,0,0,0,2.758-.129c.378-.393.43-.932.669-1.22C402.483,305.425,402.338,304.872,402.184,304.35Zm-7.967,2.528a1.164,1.164,0,0,0-.028,1.526c.351.48.473.82.981,1.072l1.678,1.2a6.979,6.979,0,0,0,3.338.468c1.314-.025.923-.028,1.007-.451a.742.742,0,0,0-.988-.723,5.583,5.583,0,0,1-1.694-.44,6.51,6.51,0,0,1-1.971-1.266c-.561-.5-.542-1.252-1.264-1.446A1.526,1.526,0,0,0,394.216,306.879Zm5.816-3.552c.531-.225.6-.636.251-.978a.917.917,0,0,0-1.053-.2.825.825,0,0,0-.6.81C398.672,303.529,399.51,303.548,400.032,303.327Zm6.425-8.441a1.737,1.737,0,0,0-1.761.013c-.268.183-.314.4-.537.636a4.579,4.579,0,0,1-.776.689,12.05,12.05,0,0,1-1.3.622c-.308.173-.542.2-.773.473-.166.194-.157.373-.3.58-.281.4-.741.369-.953.807-.3.624-.016.864.7.538.418-.192.849-.1,1.064-.507.58-.26.9-.409,1.48-.68a8.474,8.474,0,0,0,.829-.4c.292-.177.418-.335.711-.515a4.594,4.594,0,0,1,1.006-.511c.316-.115.573,0,.826-.221a1.135,1.135,0,0,0,.3-.463c.115-.238.265-.394.189-.643C407.06,295,406.752,295,406.457,294.886Zm-23.228.2c-.336-.346-.438-.661-.865-.879a2.63,2.63,0,0,0-1.113-.2c-.456-.045-.721.04-1.174-.019-.254-.035-.412-.242-.644-.131-.322.162-.2.588-.073.924.148.382.518.386.809.674.323.319.366.646.747.894.189.125.422.044.525.244.166.326-.475.35-.828.44-.559.142-.892-.279-1.463-.2-.307.042-.615-.049-.767.223-.189.334.271.544.511.845a5.556,5.556,0,0,0,1.915,1.264c.857.5,1.38.712,2.268,1.156a11.609,11.609,0,0,0,1.86.911,6.238,6.238,0,0,0,1.579.323c.43.281.868.069,1.295-.213.715-.471.081-.874-.15-1.35a1.842,1.842,0,0,0-1.332-1.08,3.731,3.731,0,0,1-1.223-.507c-.372-.227-.48-.5-.868-.7-.457-.24-1.462.169-1.285-.317.147-.4.636-.325,1.06-.275.264.031.414.369.643.23.25-.15.062-.461.012-.747C384.518,295.792,383.8,295.668,383.229,295.084Zm-1.658,6.7a1.768,1.768,0,0,0-1-.017c-.3.115-.536.215-.655.517-.1.255,0,.436.047.705s.252.411.224.693c-.022.228-.228.31-.246.54a.631.631,0,0,0,.224.649c.256.165.464-.119.767-.163.385-.056.612,0,1-.056a6.526,6.526,0,0,0,.7-.15c.3-.073.472-.124.767-.221.257-.085.5-.017.651-.238.128-.183-.113-.44.065-.57s.319.077.527.067c.342-.013.741.049.826-.279.081-.3-.226-.446-.457-.653a2.308,2.308,0,0,0-1.339-.45c-.428-.078-.687,0-1.115-.077C382.168,302.009,381.972,301.848,381.572,301.786Zm6.6,4.928c-.692.457-1.283.219-2.063.492a5.157,5.157,0,0,0-2.606,1.349c-.761.853-1.377,1.646-1.045,2.739.137.45.16,1.016.627,1.026a.63.63,0,0,0,.653-.4c.091-.252-.172-.4-.163-.665a1.606,1.606,0,0,1,.366-.859c.294-.49.447-1.024,1.017-1.055a4.177,4.177,0,0,0,1.943-.538,4.492,4.492,0,0,0,.829-.514,1.53,1.53,0,0,0,1.122-.288c.35-.236.307-.628.661-.855a2.11,2.11,0,0,1,1.175-.214c.5-.032,1.094.546,1.291.081a.776.776,0,0,0-.162-.767c-.234-.361-.707-.173-.988-.5-.149-.177-.1-.39-.288-.519-.346-.237-.637.175-1,.376a4.359,4.359,0,0,0-.711.517A8.5,8.5,0,0,1,388.176,306.714Zm4.149-14.2a19.832,19.832,0,0,0-2.755-.05c-.627.027.707.88,1.334.9A1.431,1.431,0,0,0,392.325,292.513Zm-18.757.359,15.4-1.228,11.012,1.014,8.664,1.333c-.423,1.053-.22,1.5-1.441,2.521-2.171,1.81-4.119,2.6-7,4.011a.508.508,0,0,0-.2.505.613.613,0,0,0,1.015.209c.506.563.8.576,1.179,1.545.3.768.672,1.222,1.165,2.309-.526,1.011-.573,1.986-.93,2.593a2.865,2.865,0,0,1-1.422,1.118c-1.214.169-1.687-.757-2.082-.863-.764-.205-1.022-.017-.96.429.741.373.725.747,1.89.988a4.74,4.74,0,0,1,2.643,1.508,1.7,1.7,0,0,1-.992,2.146c-.483.192-1.191.632-1.332-.023-.185-.83-.5-1.218-1.064-1.356A5.165,5.165,0,0,1,393.95,309a4.682,4.682,0,0,0,.727,2.3,4.16,4.16,0,0,1-.1,2.1c-.138.442-1.156,1.306-1.6.225a14.589,14.589,0,0,1-1-4.6c-.373-.9-1.264-.658-1.336.041a18.521,18.521,0,0,1-.162,2.033,3,3,0,0,1-.991,1.89c-1.279.358-1.125-.783-1.125-.783.449-.628.565-3.233.565-3.233a1.635,1.635,0,0,0-1.211.044,3.806,3.806,0,0,1-1.415.483c-.822-.14-.96.491-.96.491a6.314,6.314,0,0,0-.1,2.161c-1.764,2.386-3.377.2-3.377.2a3.535,3.535,0,0,1,.845-4.438c1.214-.614,2.8-.841,4.415-1.575a1.264,1.264,0,0,0,.6-1.834c-.4-.476-.976-.283-1.586-.156a4.3,4.3,0,0,0-1.152.553,12.4,12.4,0,0,0-4.4.622c-.754.207-1.727.288-1.9-.669a6.93,6.93,0,0,1-.042-1.21c.023-1.588,2.659-2.941,2.659-2.941-1.386-1.1-1.761-1.558-3.635-2.989C375.7,296.2,374.21,295.81,373.568,292.873Z" transform="translate(-348.784 -233.365)" fill="#1a1818" stroke="#1a1818" stroke-miterlimit="3.864" stroke-width="0.513" fill-rule="evenodd"/>
        <path id="Path_23" data-name="Path 23" d="M416.31,203.681a2.009,2.009,0,0,0,1.44-.848,7.873,7.873,0,0,1,3.124-2.524,44.4,44.4,0,0,1,7.927-2.874,20.109,20.109,0,0,0,5.966-2.749,18.041,18.041,0,0,1,1.833-.912l.191,3.412,2.075-.634.273,3.728c0,.082,1.506-.393,1.852-.411l.166,2.466,1.944-.659.115,1.7,1.194-.645.988,22.027c-.016.128.706,9.463.933,10.312,0,0-6.885-1.856-10.792-2.506-1.284-.211-12.534-1.71-17.824-1.108a3.567,3.567,0,0,1-.811.784c-.834.573-.868.452-1.46.409s-.577-.082-1.368-.6a1.313,1.313,0,0,1-.415-1.095l3,.035Z" transform="translate(-373.818 -172.259)" fill="#fff69b" stroke="#1a1818" stroke-miterlimit="3.864" stroke-width="1.385" fill-rule="evenodd"/>
        <path id="Path_24" data-name="Path 24" d="M442.24,203.829l1.752,27.006.242,2.808c-4.782-.3-10.277-.364-14.138.657a56.3,56.3,0,0,0-7.738,2.912" transform="translate(-379.247 -178.537)" fill="none" stroke="#1a1818" stroke-miterlimit="3.864" stroke-width="1.385" fill-rule="evenodd"/>
        <path id="Path_25" data-name="Path 25" d="M444.568,211.091l1.613,29.5a69.361,69.361,0,0,0-12.632-1.2,31.256,31.256,0,0,0-11.191,2.351" transform="translate(-379.247 -183.071)" fill="none" stroke="#1a1818" stroke-miterlimit="3.864" stroke-width="1.385" fill-rule="evenodd"/>
        <path id="Path_26" data-name="Path 26" d="M446.842,215.7l1.66,26.607.169,2.74a87.307,87.307,0,0,0-12.446-1.79A83.343,83.343,0,0,0,422.96,244.6" transform="translate(-379.622 -185.95)" fill="none" stroke="#1a1818" stroke-miterlimit="3.864" stroke-width="1.385" fill-rule="evenodd"/>
        <path id="Path_27" data-name="Path 27" d="M446.962,215.466l1.944-.659,1.179,29.366.065,1.911a115.075,115.075,0,0,0-13.432-2.363,108.849,108.849,0,0,0-13.758.325" transform="translate(-379.622 -185.391)" fill="none" stroke="#1a1818" stroke-miterlimit="3.864" stroke-width="1.385" fill-rule="evenodd"/>
        <path id="Path_28" data-name="Path 28" d="M419.234,237.192l.381,20.663-1.391-.024.9-14.25-.157,14.17-.741.08" transform="translate(-376.666 -199.368)" fill="none" stroke="#1a1818" stroke-miterlimit="3.864" stroke-width="1.385" fill-rule="evenodd"/>
        <path id="Path_29" data-name="Path 29" d="M369.951,204.149a2,2,0,0,1-1.456-.822,7.843,7.843,0,0,0-3.169-2.468,44.306,44.306,0,0,0-7.971-2.735,20.193,20.193,0,0,1-6.013-2.645,18.016,18.016,0,0,0-1.847-.88l-.133,3.414-2.089-.6-.205,3.727c0,.085-1.509-.363-1.858-.377l-.121,2.471-1.957-.627-.087,1.7-1.2-.622-.6,22.038c.017.129-.542,9.474-.755,10.327,0,0,6.851-1.975,10.744-2.693,1.279-.234,12.5-1.929,17.8-1.42a3.465,3.465,0,0,0,.827.77c.84.557.876.438,1.463.384s.577-.092,1.357-.628a1.32,1.32,0,0,0,.4-1.1l-3,.086Z" transform="translate(-328.127 -172.773)" fill="#fff69b" stroke="#1a1818" stroke-miterlimit="3.864" stroke-width="1.385" fill-rule="evenodd"/>
        <path id="Path_30" data-name="Path 30" d="M361.632,204.656l-1.279,27.033-.192,2.813c4.775-.385,10.266-.542,14.146.411a56.454,56.454,0,0,1,7.789,2.774" transform="translate(-340.413 -179.054)" fill="none" stroke="#1a1818" stroke-miterlimit="3.864" stroke-width="1.385" fill-rule="evenodd"/>
        <path id="Path_31" data-name="Path 31" d="M356.184,212.021l-1.1,29.53a69.454,69.454,0,0,1,12.61-1.421,31.339,31.339,0,0,1,11.231,2.155" transform="translate(-337.246 -183.652)" fill="none" stroke="#1a1818" stroke-miterlimit="3.864" stroke-width="1.385" fill-rule="evenodd"/>
        <path id="Path_32" data-name="Path 32" d="M350.852,216.726l-1.2,26.633-.119,2.743a86.745,86.745,0,0,1,12.409-2.011,83.429,83.429,0,0,1,13.29,1.116" transform="translate(-333.779 -186.589)" fill="none" stroke="#1a1818" stroke-miterlimit="3.864" stroke-width="1.385" fill-rule="evenodd"/>
        <path id="Path_33" data-name="Path 33" d="M348.323,216.554l-1.957-.627-.668,29.381-.034,1.914a114.522,114.522,0,0,1,13.391-2.6,108.627,108.627,0,0,1,13.762.084" transform="translate(-331.363 -186.091)" fill="none" stroke="#1a1818" stroke-miterlimit="3.864" stroke-width="1.385" fill-rule="evenodd"/>
        <path id="Path_34" data-name="Path 34" d="M418.991,237.07l-.019,20.667,1.387-.05-1.145-14.231.4,14.166.741.065" transform="translate(-377.132 -199.291)" fill="none" stroke="#1a1818" stroke-miterlimit="3.864" stroke-width="1.385" fill-rule="evenodd"/>
      </g>
      <g id="Group_5" data-name="Group 5" transform="translate(0 91.003)">
        <g id="Group_3" data-name="Group 3" transform="translate(0 21.629)">
          <path id="Path_35" data-name="Path 35" d="M266.687,443.925a1.783,1.783,0,0,1-.9-.8l-2.374-3.389.755-.68a3.033,3.033,0,0,1,1.973-.955v-.34h-2.859v.34c.241.02.562.068.562.371,0,.33-.583.807-.895,1.11l-1.42,1.41v-2.161c0-.545.231-.643.584-.7l.15-.029v-.34h-3.825v.34c.613.127.734.273.734.906v4c0,.573-.131.789-.734.9v.342h3.825v-.342c-.624-.134-.734-.261-.734-.9v-1.54l.181-.154,1.6,2.424a.428.428,0,0,1,.112.261v.254h3.261Z" transform="translate(-258.443 -437.226)" fill="#003e92" fill-rule="evenodd"/>
          <path id="Path_36" data-name="Path 36" d="M294.753,446.86h2.708v-.322c-.7-.135-.574-.389-.614-.954v-3.651l-2.728.1v.323c.614.115.6.438.624.962v1.86c0,.507-.041,1.158-.745,1.158-.6,0-.615-.554-.615-.991v-3.409l-2.728.1v.323c.606.115.606.426.625.962v1.78a1.649,1.649,0,0,0,1.792,1.86,2.226,2.226,0,0,0,1.681-.651Z" transform="translate(-278.555 -439.831)" fill="#003e92" fill-rule="evenodd"/>
          <path id="Path_37" data-name="Path 37" d="M322.856,441.933l-2.657.1v.323c.634.115.594.4.624.962v2.268c-.03.536.02.828-.614.954v.322h3.4v-.322c-.653-.079-.664-.4-.683-.954v-1.353c0-.536.01-1.773.8-1.773.063.009.152.04.152.117a.211.211,0,0,1-.041.107.78.78,0,0,0-.141.419.746.746,0,0,0,.786.691.894.894,0,0,0,.845-.964.994.994,0,0,0-1.035-.9,1.559,1.559,0,0,0-1.441.865Z" transform="translate(-297.001 -439.831)" fill="#003e92" fill-rule="evenodd"/>
          <path id="Path_38" data-name="Path 38" d="M350.236,446.86h2.709v-.322c-.7-.135-.575-.389-.615-.954v-3.651l-2.728.1v.323c.616.115.6.438.625.962v1.86c0,.507-.041,1.158-.746,1.158-.594,0-.616-.554-.616-.991v-3.409l-2.727.1v.323c.6.115.6.426.624.962v1.78a1.65,1.65,0,0,0,1.793,1.86,2.228,2.228,0,0,0,1.681-.651Z" transform="translate(-313.196 -439.831)" fill="#003e92" fill-rule="evenodd"/>
          <path id="Path_39" data-name="Path 39" d="M378.214,436.648l-2.747.134v.323c.633.127.6.349.633.953v4.226c-.031.536.02.828-.614.954v.322h3.342v-.322c-.6-.116-.615-.428-.615-.954Z" transform="translate(-331.507 -436.531)" fill="#003e92" fill-rule="evenodd"/>
          <path id="Path_40" data-name="Path 40" d="M399.641,446.86h2.708v-.322c-.7-.135-.577-.389-.615-.954v-3.651l-2.727.1v.323c.614.115.6.438.621.962v1.86c0,.507-.038,1.158-.745,1.158-.593,0-.612-.554-.612-.991v-3.409l-2.729.1v.323c.606.115.606.426.625.962v1.78a1.648,1.648,0,0,0,1.79,1.86,2.229,2.229,0,0,0,1.683-.651Z" transform="translate(-344.042 -439.831)" fill="#003e92" fill-rule="evenodd"/>
          <path id="Path_41" data-name="Path 41" d="M427.235,446.86h-.192a2.055,2.055,0,0,0-.231.6c.051.243.411.225.411.526-.039.409-.764.5-1.087.5a1.575,1.575,0,0,1-.222-.019l-.027.225a2.966,2.966,0,0,0,.653.057c.542,0,1.579-.145,1.579-.854,0-.527-.977-.45-.977-.742A1.428,1.428,0,0,1,427.235,446.86Zm2.182-4.918h-.211a.413.413,0,0,1-.281.157c-.335,0-.857-.166-1.422-.166-1.106,0-2.132.3-2.132,1.576,0,1.987,2.747,1.792,2.747,2.63,0,.34-.392.479-.7.479-.876,0-1.449-.936-1.782-1.608l-.33.009.007,1.929h.223a.473.473,0,0,1,.372-.215,13.313,13.313,0,0,0,1.523.222c1.195,0,2.424-.242,2.424-1.654,0-.993-.677-1.284-1.51-1.616-.392-.157-1.41-.468-1.41-.983,0-.323.334-.447.627-.447a1.862,1.862,0,0,1,1.548,1.235l.335-.02Z" transform="translate(-362.623 -439.831)" fill="#003e92" fill-rule="evenodd"/>
          <path id="Path_42" data-name="Path 42" d="M481.232,437.891H479.5a2.687,2.687,0,0,1-1.89,1.031v.272h.852c.453.009.473.175.473.576v3.261c0,.79-.319.943-1.107.975v.33h4.41v-.33c-.836-.051-1.006-.215-1.006-1.023Z" transform="translate(-395.28 -437.307)" fill="#003e92" fill-rule="evenodd"/>
          <path id="Path_43" data-name="Path 43" d="M510.858,440.95a9.686,9.686,0,0,1-.107,1.606c-.111.711-.526,1.4-1.359,1.4-.284,0-.727-.069-.727-.35,0-.264.554-.332.554-.916a.79.79,0,0,0-.864-.729.965.965,0,0,0-1.018.943c0,1.014,1.23,1.364,2.075,1.364,2.589,0,3.7-1.3,3.7-3.719,0-2.075-1.018-3-3.131-3-1.452,0-2.87.409-2.87,2.085a1.846,1.846,0,0,0,2.105,1.878A2.316,2.316,0,0,0,510.858,440.95Zm-1.578-1.694c0-.5.1-1.364.794-1.364.776,0,.784,1.034.784,1.56,0,.591-.038,1.547-.784,1.547-.764,0-.794-1-.794-1.587Z" transform="translate(-413.696 -437.095)" fill="#003e92" fill-rule="evenodd"/>
          <path id="Path_44" data-name="Path 44" d="M545.762,437.942h-5.107l-.434,2.523h.254c.169-.469.23-.984.845-.984h3.635c-.523.972-2.428,1.295-3.354,2.19a2.367,2.367,0,0,0-.8,1.676,1.223,1.223,0,0,0,1.372,1.168c1.117,0,1.188-.818,1.276-1.657.253-2,1.733-2.393,2.067-3.834Z" transform="translate(-434.372 -437.339)" fill="#003e92" fill-rule="evenodd"/>
          <path id="Path_45" data-name="Path 45" d="M570.051,440.279l.251.166a1.879,1.879,0,0,1,1.268-.6,1.286,1.286,0,0,1,1.359,1.46c0,.878-.169,1.851-1.287,1.851-.222-.011-.684-.079-.684-.37s.561-.371.561-.943a.8.8,0,0,0-.864-.751.984.984,0,0,0-.976,1.031c.051,1.149,1.541,1.383,2.474,1.383,1.514,0,3.093-.488,3.093-2.221a1.99,1.99,0,0,0-.837-1.567,3.084,3.084,0,0,0-1.78-.467,3.5,3.5,0,0,0-2.105.6l.231-1.394h3.727l.342-2.131h-.254c-.212.536-.7.6-1.237.6h-2.809Z" transform="translate(-452.764 -436.336)" fill="#003e92" fill-rule="evenodd"/>
        </g>
        <g id="Group_4" data-name="Group 4" transform="translate(0.529)">
          <path id="Path_46" data-name="Path 46" d="M261.465,383.235a1.7,1.7,0,0,0,3.385,0,1.6,1.6,0,0,0-1.684-1.564A1.615,1.615,0,0,0,261.465,383.235Zm5.017,14.708c-1.065-.273-1.254-.528-1.254-1.82v-8.389a1.989,1.989,0,0,1,.139-.861c.205-.449.72-.509,1.115-.607v-.684H259.85v.684c1.046.254,1.254.548,1.254,1.82v8.037c0,1.155-.225,1.585-1.254,1.82v.683h6.632Z" transform="translate(-259.85 -380.577)" fill="#003e92" fill-rule="evenodd"/>
          <path id="Path_47" data-name="Path 47" d="M289.81,398.869v3.756c0,1.193-.136,1.547-1.237,1.82v.683h6.617v-.683c-.395-.08-.912-.158-1.134-.607a2.186,2.186,0,0,1-.121-.842v-8.779a2.182,2.182,0,0,1,.121-.842c.223-.449.74-.528,1.134-.607v-.684h-6.617v.684c1.083.254,1.237.588,1.237,1.82v3.306h-3.041v-3.306c0-1.016,0-1.525,1-1.762l.223-.057v-.684h-6.6v.684c1.05.254,1.258.548,1.258,1.82v8.037c0,1.155-.225,1.585-1.258,1.82v.683h6.6v-.683c-1.084-.293-1.22-.57-1.22-1.82v-3.756Z" transform="translate(-273.297 -387.078)" fill="#003e92" fill-rule="evenodd"/>
          <path id="Path_48" data-name="Path 48" d="M333.026,399.906h-.81c-.635,1.233-1.528,3.3-2.6,4.049a2.173,2.173,0,0,1-1.289.33h-.893v-9.7c0-.92.017-1.643,1-1.762l.463-.057v-.684H322.06v.684c1.047.254,1.254.548,1.254,1.82v8.037c0,1.155-.223,1.585-1.254,1.82v.683h10.449Z" transform="translate(-298.691 -387.078)" fill="#003e92" fill-rule="evenodd"/>
          <path id="Path_49" data-name="Path 49" d="M357.715,378.757l-3.3,3.969.307.373,2.991-2.387,2.992,2.387.31-.373Zm1.806,5.006h-3.49c-.1.468-.206.937-.343,1.387l-2.167,6.729c-.376,1.133-.927,3.011-1.786,3.775a2.4,2.4,0,0,1-1,.469v.683h4.333v-.683c-.621-.139-1.257-.374-1.257-1.234a9.764,9.764,0,0,1,.551-2.521h3.385a10.76,10.76,0,0,1,.584,2.736c0,.745-.6.879-1.151,1.018v.683h6.808v-.683c-1.186-.313-1.221-1.038-1.565-2.209ZM356.2,386.03l1.324,5.42h-2.9Z" transform="translate(-316.596 -378.757)" fill="#003e92" fill-rule="evenodd"/>
          <path id="Path_50" data-name="Path 50" d="M396.616,391.342h-.53c-.123.235-.293.45-.57.45a2,2,0,0,1-.464-.079,9.412,9.412,0,0,0-2.66-.411c-2.3,0-4.418,1.056-4.418,4.047,0,5.282,6.015,4.323,6.015,7.062a1.633,1.633,0,0,1-1.717,1.683c-2.131,0-3.214-2.6-3.628-4.6l-.807.039.052,5.358h.515a.932.932,0,0,1,.722-.545,16.042,16.042,0,0,0,2.748.566c3.009,0,5.43-1.056,5.43-4.908-.2-4.772-6.218-3.442-6.218-6.593a1.39,1.39,0,0,1,1.372-1.387c1.994,0,2.94,1.681,3.4,3.657l.808-.04Z" transform="translate(-339.759 -386.589)" fill="#003e92" fill-rule="evenodd"/>
          <path id="Path_51" data-name="Path 51" d="M435.7,405.265c.273-1.113.584-2.229.891-3.346l.619-2.228.553-1.879c.393-1.27.808-3.481,1.545-4.457a1.667,1.667,0,0,1,1.083-.588v-.684H436.3v.684a1.2,1.2,0,0,1,1.221,1.253,7.211,7.211,0,0,1-.207,1.251l-1.787,7.354-2.148-7.49a4.493,4.493,0,0,1-.189-1.174c0-.82.531-1.035,1.134-1.193v-.684H427.4v.684c1.048.2,1.187.822,1.514,1.858l3.178,10.64Z" transform="translate(-364.46 -387.078)" fill="#003e92" fill-rule="evenodd"/>
          <path id="Path_52" data-name="Path 52" d="M468.706,392.084h-3.488c-.1.468-.207.937-.346,1.387L462.71,400.2c-.381,1.133-.93,3.011-1.787,3.775a2.433,2.433,0,0,1-1,.469v.683h4.33v-.683c-.619-.139-1.253-.374-1.253-1.234a9.869,9.869,0,0,1,.549-2.521h3.386a10.727,10.727,0,0,1,.584,2.736c0,.745-.6.879-1.149,1.018v.683h6.8v-.683c-1.187-.313-1.223-1.038-1.564-2.209Zm-3.315,2.267,1.322,5.42h-2.9Z" transform="translate(-384.767 -387.078)" fill="#003e92" fill-rule="evenodd"/>
          <path id="Path_53" data-name="Path 53" d="M510.868,404.463a3.244,3.244,0,0,1-1.53-1.6l-4.057-6.808,1.292-1.368a4.952,4.952,0,0,1,3.369-1.917v-.684h-4.883v.684c.415.039.964.139.964.744,0,.665-1,1.624-1.529,2.231l-2.424,2.835v-4.341c0-1.1.4-1.291,1-1.411l.257-.057v-.684h-6.528v.684c1.046.254,1.253.548,1.253,1.82v8.037c0,1.155-.222,1.585-1.253,1.82v.683h6.528v-.683c-1.064-.273-1.252-.529-1.252-1.82v-3.091l.307-.311,2.735,4.87a.964.964,0,0,1,.189.529v.507h5.567Z" transform="translate(-407.787 -387.078)" fill="#003e92" fill-rule="evenodd"/>
          <path id="Path_54" data-name="Path 54" d="M546.64,392.084H535.763v.684c1.05.254,1.253.548,1.253,1.82v8.037c0,1.155-.222,1.585-1.253,1.82v.683h6.755v-.683c-1.119-.158-1.376-.508-1.376-1.82v-4.048c2.113.058,2.232.431,2.717,2.6h.633v-5.79h-.633c-.519,2.015-.672,2.367-2.717,2.424v-4.947h1.065c2.321,0,2.835,1.624,3.78,3.7h.812Z" transform="translate(-432.117 -387.078)" fill="#003e92" fill-rule="evenodd"/>
          <path id="Path_55" data-name="Path 55" d="M574.327,404.445c-1.064-.273-1.253-.529-1.253-1.82v-8.389a1.957,1.957,0,0,1,.139-.861c.2-.449.722-.509,1.114-.607v-.684H567.7v.684c1.048.254,1.253.548,1.253,1.82v8.037c0,1.155-.224,1.585-1.253,1.82v.683h6.631Z" transform="translate(-452.055 -387.078)" fill="#003e92" fill-rule="evenodd"/>
        </g>
      </g>
    </g>
  </g>
</svg>
