<svg xmlns="http://www.w3.org/2000/svg" width="18.248" height="13.034" viewBox="0 0 18.248 13.034">
  <g id="Group_109" data-name="Group 109" transform="translate(-588.098 -141.575)">
    <g id="Group_108" data-name="Group 108" transform="translate(588.098 141.575)">
      <path id="Path_25874" data-name="Path 25874" d="M598.353,170.341l-2.257-1.976-6.455,5.533a1.322,1.322,0,0,0,.9.353h15.623a1.313,1.313,0,0,0,.9-.353l-6.451-5.533Z" transform="translate(-589.229 -161.217)" fill="#ff9d00"/>
      <path id="Path_25875" data-name="Path 25875" d="M607.073,141.928a1.312,1.312,0,0,0-.9-.353H590.55a1.307,1.307,0,0,0-.9.356l8.709,7.465Z" transform="translate(-589.237 -141.575)" fill="#ff9d00"/>
      <path id="Path_25876" data-name="Path 25876" d="M588.1,145.864v10.829l6.3-5.353Z" transform="translate(-588.098 -144.719)" fill="#ff9d00"/>
      <path id="Path_25877" data-name="Path 25877" d="M632.881,151.329l6.3,5.353V145.85Z" transform="translate(-620.932 -144.709)" fill="#ff9d00"/>
    </g>
  </g>
</svg>
