<svg xmlns="http://www.w3.org/2000/svg" width="15.738" height="21.43" viewBox="0 0 15.738 21.43">
  <g id="Group_57" data-name="Group 57" transform="translate(-295 -794.429)">
    <g id="Path_52" data-name="Path 52" transform="translate(295 803.867)" fill="none">
      <path d="M6.745,0H8.993c2.483,0,6.745,2.58,6.745,5.763V9.6C15.738,12.787,0,12.787,0,9.6V5.763C0,2.58,4.261,0,6.745,0Z" stroke="none"/>
      <path d="M 6.744696617126465 1.299996376037598 C 5.928437232971191 1.299996376037598 4.523977279663086 1.740256309509277 3.226396560668945 2.72382640838623 C 2.002137184143066 3.651816368103027 1.299996376037598 4.759396553039551 1.299996376037598 5.762596607208252 L 1.299996376037598 9.490105628967285 C 1.461971282958984 9.644721984863281 2.027936935424805 9.985798835754395 3.334277153015137 10.26923656463623 C 4.588586807250977 10.54138660430908 6.198987007141113 10.6912670135498 7.86881685256958 10.6912670135498 C 9.538646697998047 10.6912670135498 11.14904689788818 10.54138660430908 12.40335655212402 10.26923656463623 C 13.70969676971436 9.985798835754395 14.27566242218018 9.644721984863281 14.43763732910156 9.490105628967285 L 14.43763732910156 5.762596607208252 C 14.43763732910156 4.759396553039551 13.73549652099609 3.651816368103027 12.51123714447021 2.72382640838623 C 11.21365737915039 1.740256309509277 9.809196472167969 1.299996376037598 8.992937088012695 1.299996376037598 L 6.744696617126465 1.299996376037598 M 6.744696617126465 -3.814697265625e-06 L 8.992937088012695 -3.814697265625e-06 C 11.47626686096191 -3.814697265625e-06 15.73763656616211 2.579996109008789 15.73763656616211 5.762596607208252 L 15.73763656616211 9.604316711425781 C 15.73763656616211 12.78691673278809 -3.814697265625e-06 12.78691673278809 -2.86102294921875e-06 9.604316711425781 L -2.86102294921875e-06 5.762596607208252 C -2.86102294921875e-06 2.579996109008789 4.261366844177246 -3.814697265625e-06 6.744696617126465 -3.814697265625e-06 Z" stroke="none" fill="#edf5ff"/>
    </g>
    <g id="Ellipse_14" data-name="Ellipse 14" transform="translate(297.369 794.429)" fill="none" stroke="#edf5ff" stroke-width="1.3">
      <circle cx="5" cy="5" r="5" stroke="none"/>
      <circle cx="5" cy="5" r="4.35" fill="none"/>
    </g>
  </g>
</svg>
