<svg xmlns="http://www.w3.org/2000/svg" width="11.101" height="10.264" viewBox="0 0 11.101 10.264">
  <path id="Path_25879" data-name="Path 25879" d="M170.929,82.347c-.276-.135-1.617-.792-1.867-.881s-.433-.136-.615.136-.709.881-.866,1.058-.318.2-.594.068a7.375,7.375,0,0,1-2.2-1.345,8.12,8.12,0,0,1-1.518-1.872c-.156-.271-.016-.417.12-.553s.271-.318.412-.475l.1-.13a3.059,3.059,0,0,0,.172-.323.49.49,0,0,0-.021-.475c-.068-.136-.616-1.471-.845-2.013s-.453-.448-.615-.448-.339-.026-.522-.026a1.011,1.011,0,0,0-.73.339,3.036,3.036,0,0,0-.955,2.263,3.456,3.456,0,0,0,.141.923,6.148,6.148,0,0,0,.976,1.878,11.206,11.206,0,0,0,4.662,4.093c2.78,1.08,2.78.72,3.28.673a2.724,2.724,0,0,0,1.841-1.288,2.239,2.239,0,0,0,.162-1.288C171.382,82.551,171.2,82.483,170.929,82.347Z" transform="translate(-160.389 -75.067)" fill="#a8bee2" fill-rule="evenodd"/>
</svg>
