<svg xmlns="http://www.w3.org/2000/svg" width="18.904" height="17.821" viewBox="0 0 18.904 17.821">
  <g id="Group_114" data-name="Group 114" transform="translate(-146.207 -96.658) rotate(8)">
    <path id="Path_25879" data-name="Path 25879" d="M176.43,86.147c-.421-.206-2.461-1.206-2.842-1.341s-.659-.206-.936.206-1.079,1.341-1.318,1.61-.484.31-.9.1a11.225,11.225,0,0,1-3.342-2.048,12.359,12.359,0,0,1-2.31-2.849c-.238-.413-.024-.635.183-.842.19-.19.413-.484.627-.722.056-.072.1-.135.151-.2a4.656,4.656,0,0,0,.262-.492.746.746,0,0,0-.031-.722c-.1-.206-.937-2.238-1.287-3.064s-.69-.683-.936-.683-.516-.04-.794-.04a1.539,1.539,0,0,0-1.111.516,4.62,4.62,0,0,0-1.453,3.445,5.26,5.26,0,0,0,.214,1.4,9.357,9.357,0,0,0,1.485,2.858c.206.27,2.873,4.572,7.1,6.23,4.23,1.643,4.23,1.1,4.992,1.024a4.145,4.145,0,0,0,2.8-1.96,3.407,3.407,0,0,0,.246-1.961C177.12,86.457,176.842,86.353,176.43,86.147Z" fill="#ff9d00" fill-rule="evenodd"/>
  </g>
</svg>
