<svg xmlns="http://www.w3.org/2000/svg" width="29.499" height="27.337" viewBox="0 0 29.499 27.337">
  <g id="Group_66" data-name="Group 66" transform="translate(-674.889 -151.35)">
    <path id="Path_54" data-name="Path 54" d="M684.463,194.9s0-2.286-3.009-4.212-4.237-3.463-4.4-4.981-2.094-11.506-1.612-11.747,4.332,8.665,4.693,9.507a12.871,12.871,0,0,0,3.249,3.731" transform="translate(0 -17.349)" fill="none" stroke="#fff" stroke-linecap="round" stroke-miterlimit="10" stroke-width="1.3"/>
    <g id="Group_51" data-name="Group 51" transform="translate(680.372 156.611)">
      <path id="Path_55" data-name="Path 55" d="M768.008,194.9s0-2.286,3.009-4.212,4.237-3.463,4.4-4.981,2.094-11.506,1.612-11.747-4.332,8.665-4.693,9.507a12.873,12.873,0,0,1-3.249,3.731" transform="translate(-753.566 -173.96)" fill="none" stroke="#fff" stroke-linecap="round" stroke-miterlimit="10" stroke-width="1.3"/>
      <path id="Path_56" data-name="Path 56" d="M699.23,215.071s0-1.684,1.323-1.564a1.907,1.907,0,0,1,.953.487" transform="translate(-699.23 -205.198)" fill="none" stroke="#fff" stroke-linecap="round" stroke-miterlimit="10" stroke-width="1.3"/>
      <path id="Path_57" data-name="Path 57" d="M741.374,250.93a5.85,5.85,0,0,1,.382,2.146,8.81,8.81,0,0,0,.407,2.558.426.426,0,1,1-.834.126.435.435,0,0,1,.019-.126,8.8,8.8,0,0,0,.407-2.558,5.81,5.81,0,0,1,.386-2.156" transform="translate(-732.49 -234.76)" fill="none" stroke="#fff" stroke-linecap="round" stroke-miterlimit="10" stroke-width="1.3"/>
      <path id="Path_58" data-name="Path 58" d="M775.96,214.116a2.154,2.154,0,0,1,1.1-.609c1.323-.12,1.323,1.564,1.323,1.564" transform="translate(-759.848 -205.198)" fill="none" stroke="#fff" stroke-linecap="round" stroke-miterlimit="10" stroke-width="1.3"/>
    </g>
    <path id="Path_59" data-name="Path 59" d="M723.905,191.6c-1.272,1.1-2.975,3.5-5.159,5.409a4.713,4.713,0,0,0-1.3,1.833c-.153.013-.307.017-.462.017-.1,0-.206,0-.307-.006a4.708,4.708,0,0,0-1.3-1.844c-2.268-1.984-4.017-4.489-5.3-5.531a6.929,6.929,0,0,1,13.835.122Z" transform="translate(-27.422 -26.071)" fill="#ffb118" stroke="#fff" stroke-linecap="round" stroke-miterlimit="10" stroke-width="1.3"/>
    <line id="Line_5" data-name="Line 5" y2="3.78" transform="translate(689.563 152)" fill="none" stroke="#fff" stroke-linecap="round" stroke-miterlimit="10" stroke-width="1.3"/>
    <line id="Line_6" data-name="Line 6" x2="2.673" y2="2.673" transform="translate(679.763 156.059)" fill="none" stroke="#fff" stroke-linecap="round" stroke-miterlimit="10" stroke-width="1.3"/>
    <line id="Line_7" data-name="Line 7" x1="2.673" y2="2.673" transform="translate(696.69 156.059)" fill="none" stroke="#fff" stroke-linecap="round" stroke-miterlimit="10" stroke-width="1.3"/>
  </g>
</svg>
