<svg xmlns="http://www.w3.org/2000/svg" width="38.887" height="38.887" viewBox="0 0 38.887 38.887">
  <g id="Group_319" data-name="Group 319" transform="translate(-195.425 -150.63)">
    <path id="Path_26020" data-name="Path 26020" d="M234.312,169.573a19.121,19.121,0,0,1-28.317,16.585l-10.57,3.359,3.445-10.163a18.743,18.743,0,0,1-2.738-9.781,19.09,19.09,0,0,1,38.18,0Zm-19.089-15.926a16,16,0,0,0-16.05,15.926,15.763,15.763,0,0,0,3.057,9.338l-2,5.913,6.167-1.959a15.968,15.968,0,1,0,8.831-29.218Zm9.64,20.289c-.118-.194-.43-.31-.9-.542s-2.77-1.356-3.2-1.51-.742-.232-1.052.232-1.209,1.511-1.483,1.821-.544.348-1.013.116a12.81,12.81,0,0,1-3.764-2.3,14.118,14.118,0,0,1-2.6-3.216c-.271-.464-.027-.715.2-.947.211-.209.468-.542.7-.812a3.187,3.187,0,0,0,.468-.777.843.843,0,0,0-.04-.812c-.116-.232-1.052-2.517-1.443-3.448s-.778-.893-1.052-.893a6.748,6.748,0,0,0-.777.081,2.644,2.644,0,0,0-1.366.581,5.19,5.19,0,0,0-1.637,3.871,8.986,8.986,0,0,0,1.909,4.8c.234.311,3.236,5.152,7.994,7.011s4.758,1.238,5.616,1.16a4.722,4.722,0,0,0,3.158-2.207,3.859,3.859,0,0,0,.274-2.207Zm0,0" fill="#fff" fill-rule="evenodd"/>
  </g>
</svg>
